<svg width="1363" height="163" viewBox="0 0 1363 163" fill="none" xmlns="http://www.w3.org/2000/svg">
<path d="M0 15C0 6.71573 6.71573 0 15 0H37V163H15C6.71573 163 0 156.284 0 148V15Z" fill="#424242"/>
<rect width="1097" height="163" transform="translate(37)" fill="#F0F0F0"/>
<path d="M101.906 53.9219L94.3945 51.2383V48.0859L104.602 52.375V54.6367L101.906 53.9219ZM94.3945 56.1719L101.918 53.4297L104.602 52.7852V55.0352L94.3945 59.3242V56.1719ZM114.504 43.9375H117.48L121.863 56.4648L126.246 43.9375H129.223L123.059 61H120.668L114.504 43.9375ZM112.898 43.9375H115.863L116.402 56.1484V61H112.898V43.9375ZM127.863 43.9375H130.84V61H127.324V56.1484L127.863 43.9375ZM137.473 59.5703L140.836 48.3203H144.457L139.359 62.9102C139.25 63.2305 139.102 63.5742 138.914 63.9414C138.734 64.3086 138.488 64.6562 138.176 64.9844C137.871 65.3203 137.484 65.5938 137.016 65.8047C136.555 66.0156 135.988 66.1211 135.316 66.1211C134.996 66.1211 134.734 66.1016 134.531 66.0625C134.328 66.0234 134.086 65.9688 133.805 65.8984V63.4258C133.891 63.4258 133.98 63.4258 134.074 63.4258C134.168 63.4336 134.258 63.4375 134.344 63.4375C134.789 63.4375 135.152 63.3867 135.434 63.2852C135.715 63.1836 135.941 63.0273 136.113 62.8164C136.285 62.6133 136.422 62.3477 136.523 62.0195L137.473 59.5703ZM136.066 48.3203L138.82 57.5078L139.301 61.082L137.004 61.3281L132.445 48.3203H136.066ZM158.895 55.7617V43.9375H162.398V55.7617C162.398 56.9023 162.148 57.8828 161.648 58.7031C161.148 59.5156 160.465 60.1406 159.598 60.5781C158.738 61.0156 157.77 61.2344 156.691 61.2344C155.574 61.2344 154.586 61.0469 153.727 60.6719C152.867 60.2969 152.191 59.7227 151.699 58.9492C151.207 58.168 150.961 57.1797 150.961 55.9844H154.488C154.488 56.6094 154.574 57.1055 154.746 57.4727C154.926 57.8398 155.18 58.1016 155.508 58.2578C155.836 58.4141 156.23 58.4922 156.691 58.4922C157.137 58.4922 157.523 58.3867 157.852 58.1758C158.18 57.9648 158.434 57.6562 158.613 57.25C158.801 56.8438 158.895 56.3477 158.895 55.7617ZM164.648 54.7891V54.543C164.648 53.6133 164.781 52.7578 165.047 51.9766C165.312 51.1875 165.699 50.5039 166.207 49.9258C166.715 49.3477 167.34 48.8984 168.082 48.5781C168.824 48.25 169.676 48.0859 170.637 48.0859C171.598 48.0859 172.453 48.25 173.203 48.5781C173.953 48.8984 174.582 49.3477 175.09 49.9258C175.605 50.5039 175.996 51.1875 176.262 51.9766C176.527 52.7578 176.66 53.6133 176.66 54.543V54.7891C176.66 55.7109 176.527 56.5664 176.262 57.3555C175.996 58.1367 175.605 58.8203 175.09 59.4062C174.582 59.9844 173.957 60.4336 173.215 60.7539C172.473 61.0742 171.621 61.2344 170.66 61.2344C169.699 61.2344 168.844 61.0742 168.094 60.7539C167.352 60.4336 166.723 59.9844 166.207 59.4062C165.699 58.8203 165.312 58.1367 165.047 57.3555C164.781 56.5664 164.648 55.7109 164.648 54.7891ZM168.023 54.543V54.7891C168.023 55.3203 168.07 55.8164 168.164 56.2773C168.258 56.7383 168.406 57.1445 168.609 57.4961C168.82 57.8398 169.094 58.1094 169.43 58.3047C169.766 58.5 170.176 58.5977 170.66 58.5977C171.129 58.5977 171.531 58.5 171.867 58.3047C172.203 58.1094 172.473 57.8398 172.676 57.4961C172.879 57.1445 173.027 56.7383 173.121 56.2773C173.223 55.8164 173.273 55.3203 173.273 54.7891V54.543C173.273 54.0273 173.223 53.543 173.121 53.0898C173.027 52.6289 172.875 52.2227 172.664 51.8711C172.461 51.5117 172.191 51.2305 171.855 51.0273C171.52 50.8242 171.113 50.7227 170.637 50.7227C170.16 50.7227 169.754 50.8242 169.418 51.0273C169.09 51.2305 168.82 51.5117 168.609 51.8711C168.406 52.2227 168.258 52.6289 168.164 53.0898C168.07 53.543 168.023 54.0273 168.023 54.543ZM186.234 57.9648V48.3203H189.609V61H186.434L186.234 57.9648ZM186.609 55.3633L187.605 55.3398C187.605 56.1836 187.508 56.9688 187.312 57.6953C187.117 58.4141 186.824 59.0391 186.434 59.5703C186.043 60.0938 185.551 60.5039 184.957 60.8008C184.363 61.0898 183.664 61.2344 182.859 61.2344C182.242 61.2344 181.672 61.1484 181.148 60.9766C180.633 60.7969 180.188 60.5195 179.812 60.1445C179.445 59.7617 179.156 59.2734 178.945 58.6797C178.742 58.0781 178.641 57.3555 178.641 56.5117V48.3203H182.016V56.5352C182.016 56.9102 182.059 57.2266 182.145 57.4844C182.238 57.7422 182.367 57.9531 182.531 58.1172C182.695 58.2812 182.887 58.3984 183.105 58.4688C183.332 58.5391 183.582 58.5742 183.855 58.5742C184.551 58.5742 185.098 58.4336 185.496 58.1523C185.902 57.8711 186.188 57.4883 186.352 57.0039C186.523 56.5117 186.609 55.9648 186.609 55.3633ZM195.562 51.0859V61H192.188V48.3203H195.363L195.562 51.0859ZM199.383 48.2383L199.324 51.3672C199.16 51.3438 198.961 51.3242 198.727 51.3086C198.5 51.2852 198.293 51.2734 198.105 51.2734C197.629 51.2734 197.215 51.3359 196.863 51.4609C196.52 51.5781 196.23 51.7539 195.996 51.9883C195.77 52.2227 195.598 52.5078 195.48 52.8438C195.371 53.1797 195.309 53.5625 195.293 53.9922L194.613 53.7812C194.613 52.9609 194.695 52.207 194.859 51.5195C195.023 50.8242 195.262 50.2188 195.574 49.7031C195.895 49.1875 196.285 48.7891 196.746 48.5078C197.207 48.2266 197.734 48.0859 198.328 48.0859C198.516 48.0859 198.707 48.1016 198.902 48.1328C199.098 48.1562 199.258 48.1914 199.383 48.2383ZM204.281 51.0273V61H200.906V48.3203H204.07L204.281 51.0273ZM203.789 54.2148H202.875C202.875 53.2773 202.996 52.4336 203.238 51.6836C203.48 50.9258 203.82 50.2812 204.258 49.75C204.695 49.2109 205.215 48.8008 205.816 48.5195C206.426 48.2305 207.105 48.0859 207.855 48.0859C208.449 48.0859 208.992 48.1719 209.484 48.3438C209.977 48.5156 210.398 48.7891 210.75 49.1641C211.109 49.5391 211.383 50.0352 211.57 50.6523C211.766 51.2695 211.863 52.0234 211.863 52.9141V61H208.465V52.9023C208.465 52.3398 208.387 51.9023 208.23 51.5898C208.074 51.2773 207.844 51.0586 207.539 50.9336C207.242 50.8008 206.875 50.7344 206.438 50.7344C205.984 50.7344 205.59 50.8242 205.254 51.0039C204.926 51.1836 204.652 51.4336 204.434 51.7539C204.223 52.0664 204.062 52.4336 203.953 52.8555C203.844 53.2773 203.789 53.7305 203.789 54.2148ZM220.266 61.2344C219.281 61.2344 218.398 61.0781 217.617 60.7656C216.836 60.4453 216.172 60.0039 215.625 59.4414C215.086 58.8789 214.672 58.2266 214.383 57.4844C214.094 56.7344 213.949 55.9375 213.949 55.0938V54.625C213.949 53.6641 214.086 52.7852 214.359 51.9883C214.633 51.1914 215.023 50.5 215.531 49.9141C216.047 49.3281 216.672 48.8789 217.406 48.5664C218.141 48.2461 218.969 48.0859 219.891 48.0859C220.789 48.0859 221.586 48.2344 222.281 48.5312C222.977 48.8281 223.559 49.25 224.027 49.7969C224.504 50.3438 224.863 51 225.105 51.7656C225.348 52.5234 225.469 53.3672 225.469 54.2969V55.7031H215.391V53.4531H222.152V53.1953C222.152 52.7266 222.066 52.3086 221.895 51.9414C221.73 51.5664 221.48 51.2695 221.145 51.0508C220.809 50.832 220.379 50.7227 219.855 50.7227C219.41 50.7227 219.027 50.8203 218.707 51.0156C218.387 51.2109 218.125 51.4844 217.922 51.8359C217.727 52.1875 217.578 52.6016 217.477 53.0781C217.383 53.5469 217.336 54.0625 217.336 54.625V55.0938C217.336 55.6016 217.406 56.0703 217.547 56.5C217.695 56.9297 217.902 57.3008 218.168 57.6133C218.441 57.9258 218.77 58.168 219.152 58.3398C219.543 58.5117 219.984 58.5977 220.477 58.5977C221.086 58.5977 221.652 58.4805 222.176 58.2461C222.707 58.0039 223.164 57.6406 223.547 57.1562L225.188 58.9375C224.922 59.3203 224.559 59.6875 224.098 60.0391C223.645 60.3906 223.098 60.6797 222.457 60.9062C221.816 61.125 221.086 61.2344 220.266 61.2344ZM230.988 59.5703L234.352 48.3203H237.973L232.875 62.9102C232.766 63.2305 232.617 63.5742 232.43 63.9414C232.25 64.3086 232.004 64.6562 231.691 64.9844C231.387 65.3203 231 65.5938 230.531 65.8047C230.07 66.0156 229.504 66.1211 228.832 66.1211C228.512 66.1211 228.25 66.1016 228.047 66.0625C227.844 66.0234 227.602 65.9688 227.32 65.8984V63.4258C227.406 63.4258 227.496 63.4258 227.59 63.4258C227.684 63.4336 227.773 63.4375 227.859 63.4375C228.305 63.4375 228.668 63.3867 228.949 63.2852C229.23 63.1836 229.457 63.0273 229.629 62.8164C229.801 62.6133 229.938 62.3477 230.039 62.0195L230.988 59.5703ZM229.582 48.3203L232.336 57.5078L232.816 61.082L230.52 61.3281L225.961 48.3203H229.582Z" fill="#888888"/>
<path d="M118.594 98.4219V104.75H101.086V98.4219H118.594ZM103.828 84.875V119H95.6016V84.875H103.828ZM124.125 84.875V119H115.922V84.875H124.125ZM127.992 106.578V106.086C127.992 104.227 128.258 102.516 128.789 100.953C129.32 99.375 130.102 98.0078 131.133 96.8516C132.164 95.6953 133.438 94.7969 134.953 94.1562C136.469 93.5 138.219 93.1719 140.203 93.1719C142.203 93.1719 143.961 93.5 145.477 94.1562C147.008 94.7969 148.289 95.6953 149.32 96.8516C150.352 98.0078 151.133 99.375 151.664 100.953C152.195 102.516 152.461 104.227 152.461 106.086V106.578C152.461 108.422 152.195 110.133 151.664 111.711C151.133 113.273 150.352 114.641 149.32 115.812C148.289 116.969 147.016 117.867 145.5 118.508C143.984 119.148 142.234 119.469 140.25 119.469C138.266 119.469 136.508 119.148 134.977 118.508C133.445 117.867 132.164 116.969 131.133 115.812C130.102 114.641 129.32 113.273 128.789 111.711C128.258 110.133 127.992 108.422 127.992 106.578ZM135.891 106.086V106.578C135.891 107.531 135.961 108.422 136.102 109.25C136.242 110.078 136.477 110.805 136.805 111.43C137.133 112.039 137.578 112.516 138.141 112.859C138.703 113.203 139.406 113.375 140.25 113.375C141.078 113.375 141.766 113.203 142.312 112.859C142.875 112.516 143.32 112.039 143.648 111.43C143.977 110.805 144.211 110.078 144.352 109.25C144.492 108.422 144.562 107.531 144.562 106.578V106.086C144.562 105.164 144.492 104.297 144.352 103.484C144.211 102.656 143.977 101.93 143.648 101.305C143.32 100.664 142.875 100.164 142.312 99.8047C141.75 99.4453 141.047 99.2656 140.203 99.2656C139.375 99.2656 138.68 99.4453 138.117 99.8047C137.57 100.164 137.133 100.664 136.805 101.305C136.477 101.93 136.242 102.656 136.102 103.484C135.961 104.297 135.891 105.164 135.891 106.086ZM163.688 111.453L168.375 93.6406H173.32L171.562 102.57L166.922 119H162.961L163.688 111.453ZM161.836 93.6406L164.742 111.312L165.07 119H160.266L154.266 93.6406H161.836ZM177.492 110.938L180.422 93.6406H187.992L182.039 119H177.234L177.492 110.938ZM173.883 93.6406L178.617 111.406L179.344 119H175.336L170.789 102.617L169.102 93.6406H173.883ZM218.297 84.875V119H210.07V84.875H218.297ZM228.562 84.875V91.2266H200.039V84.875H228.562ZM225.773 106.578V106.086C225.773 104.227 226.039 102.516 226.57 100.953C227.102 99.375 227.883 98.0078 228.914 96.8516C229.945 95.6953 231.219 94.7969 232.734 94.1562C234.25 93.5 236 93.1719 237.984 93.1719C239.984 93.1719 241.742 93.5 243.258 94.1562C244.789 94.7969 246.07 95.6953 247.102 96.8516C248.133 98.0078 248.914 99.375 249.445 100.953C249.977 102.516 250.242 104.227 250.242 106.086V106.578C250.242 108.422 249.977 110.133 249.445 111.711C248.914 113.273 248.133 114.641 247.102 115.812C246.07 116.969 244.797 117.867 243.281 118.508C241.766 119.148 240.016 119.469 238.031 119.469C236.047 119.469 234.289 119.148 232.758 118.508C231.227 117.867 229.945 116.969 228.914 115.812C227.883 114.641 227.102 113.273 226.57 111.711C226.039 110.133 225.773 108.422 225.773 106.578ZM233.672 106.086V106.578C233.672 107.531 233.742 108.422 233.883 109.25C234.023 110.078 234.258 110.805 234.586 111.43C234.914 112.039 235.359 112.516 235.922 112.859C236.484 113.203 237.188 113.375 238.031 113.375C238.859 113.375 239.547 113.203 240.094 112.859C240.656 112.516 241.102 112.039 241.43 111.43C241.758 110.805 241.992 110.078 242.133 109.25C242.273 108.422 242.344 107.531 242.344 106.578V106.086C242.344 105.164 242.273 104.297 242.133 103.484C241.992 102.656 241.758 101.93 241.43 101.305C241.102 100.664 240.656 100.164 240.094 99.8047C239.531 99.4453 238.828 99.2656 237.984 99.2656C237.156 99.2656 236.461 99.4453 235.898 99.8047C235.352 100.164 234.914 100.664 234.586 101.305C234.258 101.93 234.023 102.656 233.883 103.484C233.742 104.297 233.672 105.164 233.672 106.086ZM266.086 84.875H279.516C282.141 84.875 284.422 85.2656 286.359 86.0469C288.297 86.8281 289.789 87.9844 290.836 89.5156C291.898 91.0469 292.43 92.9375 292.43 95.1875C292.43 97.1406 292.125 98.7734 291.516 100.086C290.906 101.398 290.055 102.484 288.961 103.344C287.883 104.188 286.625 104.883 285.188 105.43L282.492 106.953H271.219L271.172 100.602H279.516C280.562 100.602 281.43 100.414 282.117 100.039C282.805 99.6641 283.32 99.1328 283.664 98.4453C284.023 97.7422 284.203 96.9062 284.203 95.9375C284.203 94.9531 284.023 94.1094 283.664 93.4062C283.305 92.7031 282.773 92.1641 282.07 91.7891C281.383 91.4141 280.531 91.2266 279.516 91.2266H274.312V119H266.086V84.875ZM284.766 119L277.219 103.906L285.938 103.859L293.578 118.648V119H284.766ZM311.836 112.836V93.6406H319.758V119H312.352L311.836 112.836ZM312.586 107.68L314.648 107.633C314.648 109.336 314.445 110.914 314.039 112.367C313.633 113.805 313.031 115.055 312.234 116.117C311.453 117.18 310.484 118.008 309.328 118.602C308.188 119.18 306.867 119.469 305.367 119.469C304.117 119.469 302.969 119.297 301.922 118.953C300.891 118.594 300 118.039 299.25 117.289C298.5 116.523 297.914 115.547 297.492 114.359C297.086 113.156 296.883 111.719 296.883 110.047V93.6406H304.781V110.094C304.781 110.656 304.852 111.141 304.992 111.547C305.133 111.953 305.336 112.297 305.602 112.578C305.867 112.844 306.195 113.047 306.586 113.188C306.992 113.312 307.453 113.375 307.969 113.375C309.156 113.375 310.086 113.125 310.758 112.625C311.43 112.125 311.898 111.445 312.164 110.586C312.445 109.727 312.586 108.758 312.586 107.68ZM331.875 99.0547V119H323.977V93.6406H331.383L331.875 99.0547ZM330.938 105.453L329.086 105.5C329.086 103.562 329.32 101.836 329.789 100.32C330.258 98.7891 330.922 97.4922 331.781 96.4297C332.641 95.3672 333.664 94.5625 334.852 94.0156C336.055 93.4531 337.391 93.1719 338.859 93.1719C340.031 93.1719 341.102 93.3438 342.07 93.6875C343.055 94.0312 343.898 94.5859 344.602 95.3516C345.32 96.1172 345.867 97.1328 346.242 98.3984C346.633 99.6484 346.828 101.195 346.828 103.039V119H338.883V103.016C338.883 102 338.742 101.227 338.461 100.695C338.18 100.148 337.773 99.7734 337.242 99.5703C336.711 99.3672 336.062 99.2656 335.297 99.2656C334.484 99.2656 333.797 99.4219 333.234 99.7344C332.672 100.047 332.219 100.484 331.875 101.047C331.547 101.594 331.305 102.242 331.148 102.992C331.008 103.742 330.938 104.562 330.938 105.453ZM363.773 108.195H357.047C357.047 106.82 357.141 105.609 357.328 104.562C357.531 103.5 357.875 102.547 358.359 101.703C358.844 100.859 359.5 100.078 360.328 99.3594C361.062 98.75 361.695 98.1641 362.227 97.6016C362.758 97.0391 363.164 96.4688 363.445 95.8906C363.727 95.3125 363.867 94.6953 363.867 94.0391C363.867 93.2266 363.75 92.5625 363.516 92.0469C363.297 91.5312 362.961 91.1484 362.508 90.8984C362.07 90.6328 361.516 90.5 360.844 90.5C360.297 90.5 359.781 90.6328 359.297 90.8984C358.828 91.1641 358.445 91.5781 358.148 92.1406C357.852 92.6875 357.688 93.4141 357.656 94.3203H349.711C349.758 91.9922 350.273 90.1016 351.258 88.6484C352.258 87.1797 353.586 86.1094 355.242 85.4375C356.914 84.75 358.781 84.4062 360.844 84.4062C363.125 84.4062 365.086 84.7578 366.727 85.4609C368.367 86.1641 369.625 87.2109 370.5 88.6016C371.375 89.9766 371.812 91.6719 371.812 93.6875C371.812 95.0312 371.555 96.2031 371.039 97.2031C370.539 98.1875 369.859 99.1094 369 99.9688C368.156 100.812 367.211 101.719 366.164 102.688C365.258 103.484 364.641 104.297 364.312 105.125C363.984 105.938 363.805 106.961 363.773 108.195ZM356.086 115.32C356.086 114.195 356.492 113.258 357.305 112.508C358.117 111.742 359.172 111.359 360.469 111.359C361.766 111.359 362.82 111.742 363.633 112.508C364.445 113.258 364.852 114.195 364.852 115.32C364.852 116.445 364.445 117.391 363.633 118.156C362.82 118.906 361.766 119.281 360.469 119.281C359.172 119.281 358.117 118.906 357.305 118.156C356.492 117.391 356.086 116.445 356.086 115.32Z" fill="black"/>
<path d="M1134 0H1348C1356.28 0 1363 6.71573 1363 15V148C1363 156.284 1356.28 163 1348 163H1134V0Z" fill="#FDDF97"/>
<path d="M1260.62 78.8078C1263.81 78.8078 1266.93 79.7552 1269.59 81.5302C1272.25 83.3052 1274.32 85.8281 1275.54 88.7798C1276.76 91.7315 1277.08 94.9795 1276.46 98.1131C1275.84 101.247 1274.3 104.125 1272.04 106.384C1269.78 108.643 1266.9 110.182 1263.77 110.805C1260.63 111.428 1257.39 111.108 1254.43 109.886C1251.48 108.663 1248.96 106.593 1247.18 103.936C1245.41 101.28 1244.46 98.1565 1244.46 94.9616C1244.46 90.6774 1246.16 86.5686 1249.19 83.5392C1252.22 80.5097 1256.33 78.8078 1260.62 78.8078ZM1260.62 73.4232C1256.36 73.4232 1252.19 74.6864 1248.65 77.0531C1245.11 79.4198 1242.35 82.7836 1240.72 86.7192C1239.09 90.6549 1238.66 94.9855 1239.49 99.1636C1240.32 103.342 1242.37 107.179 1245.39 110.192C1248.4 113.204 1252.24 115.255 1256.41 116.086C1260.59 116.917 1264.92 116.491 1268.86 114.861C1272.79 113.23 1276.16 110.47 1278.52 106.928C1280.89 103.386 1282.15 99.2215 1282.15 94.9616C1282.15 89.2493 1279.88 83.7709 1275.85 79.7317C1271.81 75.6924 1266.33 73.4232 1260.62 73.4232Z" fill="white"/>
<path d="M1274.08 46.4999H1220.23C1218.8 46.4999 1217.43 47.0672 1216.42 48.0771C1215.41 49.0869 1214.85 50.4565 1214.85 51.8845V105.731C1214.85 107.159 1215.41 108.528 1216.42 109.538C1217.43 110.548 1218.8 111.115 1220.23 111.115H1231V105.731H1220.23V68.0383H1279.46V51.8845C1279.46 50.4565 1278.89 49.0869 1277.88 48.0771C1276.87 47.0672 1275.5 46.4999 1274.08 46.4999ZM1220.23 62.6537V51.8845H1274.08V62.6537H1220.23Z" fill="white"/>
<path d="M1255.23 86.8848V103.039L1268.69 94.9617L1255.23 86.8848Z" fill="white"/>
</svg>
