<svg width="1363" height="275" viewBox="0 0 1363 275" fill="none" xmlns="http://www.w3.org/2000/svg">
<path d="M0 15C0 6.71573 6.71573 0 15 0H37V275H15C6.71573 275 0 268.284 0 260V15Z" fill="#424242"/>
<rect width="1097" height="275" transform="translate(37)" fill="#F0F0F0"/>
<path d="M101.906 53.9219L94.3945 51.2383V48.0859L104.602 52.375V54.6367L101.906 53.9219ZM94.3945 56.1719L101.918 53.4297L104.602 52.7852V55.0352L94.3945 59.3242V56.1719ZM114.504 43.9375H117.48L121.863 56.4648L126.246 43.9375H129.223L123.059 61H120.668L114.504 43.9375ZM112.898 43.9375H115.863L116.402 56.1484V61H112.898V43.9375ZM127.863 43.9375H130.84V61H127.324V56.1484L127.863 43.9375ZM137.473 59.5703L140.836 48.3203H144.457L139.359 62.9102C139.25 63.2305 139.102 63.5742 138.914 63.9414C138.734 64.3086 138.488 64.6562 138.176 64.9844C137.871 65.3203 137.484 65.5938 137.016 65.8047C136.555 66.0156 135.988 66.1211 135.316 66.1211C134.996 66.1211 134.734 66.1016 134.531 66.0625C134.328 66.0234 134.086 65.9688 133.805 65.8984V63.4258C133.891 63.4258 133.98 63.4258 134.074 63.4258C134.168 63.4336 134.258 63.4375 134.344 63.4375C134.789 63.4375 135.152 63.3867 135.434 63.2852C135.715 63.1836 135.941 63.0273 136.113 62.8164C136.285 62.6133 136.422 62.3477 136.523 62.0195L137.473 59.5703ZM136.066 48.3203L138.82 57.5078L139.301 61.082L137.004 61.3281L132.445 48.3203H136.066ZM158.895 55.7617V43.9375H162.398V55.7617C162.398 56.9023 162.148 57.8828 161.648 58.7031C161.148 59.5156 160.465 60.1406 159.598 60.5781C158.738 61.0156 157.77 61.2344 156.691 61.2344C155.574 61.2344 154.586 61.0469 153.727 60.6719C152.867 60.2969 152.191 59.7227 151.699 58.9492C151.207 58.168 150.961 57.1797 150.961 55.9844H154.488C154.488 56.6094 154.574 57.1055 154.746 57.4727C154.926 57.8398 155.18 58.1016 155.508 58.2578C155.836 58.4141 156.23 58.4922 156.691 58.4922C157.137 58.4922 157.523 58.3867 157.852 58.1758C158.18 57.9648 158.434 57.6562 158.613 57.25C158.801 56.8438 158.895 56.3477 158.895 55.7617ZM164.648 54.7891V54.543C164.648 53.6133 164.781 52.7578 165.047 51.9766C165.312 51.1875 165.699 50.5039 166.207 49.9258C166.715 49.3477 167.34 48.8984 168.082 48.5781C168.824 48.25 169.676 48.0859 170.637 48.0859C171.598 48.0859 172.453 48.25 173.203 48.5781C173.953 48.8984 174.582 49.3477 175.09 49.9258C175.605 50.5039 175.996 51.1875 176.262 51.9766C176.527 52.7578 176.66 53.6133 176.66 54.543V54.7891C176.66 55.7109 176.527 56.5664 176.262 57.3555C175.996 58.1367 175.605 58.8203 175.09 59.4062C174.582 59.9844 173.957 60.4336 173.215 60.7539C172.473 61.0742 171.621 61.2344 170.66 61.2344C169.699 61.2344 168.844 61.0742 168.094 60.7539C167.352 60.4336 166.723 59.9844 166.207 59.4062C165.699 58.8203 165.312 58.1367 165.047 57.3555C164.781 56.5664 164.648 55.7109 164.648 54.7891ZM168.023 54.543V54.7891C168.023 55.3203 168.07 55.8164 168.164 56.2773C168.258 56.7383 168.406 57.1445 168.609 57.4961C168.82 57.8398 169.094 58.1094 169.43 58.3047C169.766 58.5 170.176 58.5977 170.66 58.5977C171.129 58.5977 171.531 58.5 171.867 58.3047C172.203 58.1094 172.473 57.8398 172.676 57.4961C172.879 57.1445 173.027 56.7383 173.121 56.2773C173.223 55.8164 173.273 55.3203 173.273 54.7891V54.543C173.273 54.0273 173.223 53.543 173.121 53.0898C173.027 52.6289 172.875 52.2227 172.664 51.8711C172.461 51.5117 172.191 51.2305 171.855 51.0273C171.52 50.8242 171.113 50.7227 170.637 50.7227C170.16 50.7227 169.754 50.8242 169.418 51.0273C169.09 51.2305 168.82 51.5117 168.609 51.8711C168.406 52.2227 168.258 52.6289 168.164 53.0898C168.07 53.543 168.023 54.0273 168.023 54.543ZM186.234 57.9648V48.3203H189.609V61H186.434L186.234 57.9648ZM186.609 55.3633L187.605 55.3398C187.605 56.1836 187.508 56.9688 187.312 57.6953C187.117 58.4141 186.824 59.0391 186.434 59.5703C186.043 60.0938 185.551 60.5039 184.957 60.8008C184.363 61.0898 183.664 61.2344 182.859 61.2344C182.242 61.2344 181.672 61.1484 181.148 60.9766C180.633 60.7969 180.188 60.5195 179.812 60.1445C179.445 59.7617 179.156 59.2734 178.945 58.6797C178.742 58.0781 178.641 57.3555 178.641 56.5117V48.3203H182.016V56.5352C182.016 56.9102 182.059 57.2266 182.145 57.4844C182.238 57.7422 182.367 57.9531 182.531 58.1172C182.695 58.2812 182.887 58.3984 183.105 58.4688C183.332 58.5391 183.582 58.5742 183.855 58.5742C184.551 58.5742 185.098 58.4336 185.496 58.1523C185.902 57.8711 186.188 57.4883 186.352 57.0039C186.523 56.5117 186.609 55.9648 186.609 55.3633ZM195.562 51.0859V61H192.188V48.3203H195.363L195.562 51.0859ZM199.383 48.2383L199.324 51.3672C199.16 51.3438 198.961 51.3242 198.727 51.3086C198.5 51.2852 198.293 51.2734 198.105 51.2734C197.629 51.2734 197.215 51.3359 196.863 51.4609C196.52 51.5781 196.23 51.7539 195.996 51.9883C195.77 52.2227 195.598 52.5078 195.48 52.8438C195.371 53.1797 195.309 53.5625 195.293 53.9922L194.613 53.7812C194.613 52.9609 194.695 52.207 194.859 51.5195C195.023 50.8242 195.262 50.2188 195.574 49.7031C195.895 49.1875 196.285 48.7891 196.746 48.5078C197.207 48.2266 197.734 48.0859 198.328 48.0859C198.516 48.0859 198.707 48.1016 198.902 48.1328C199.098 48.1562 199.258 48.1914 199.383 48.2383ZM204.281 51.0273V61H200.906V48.3203H204.07L204.281 51.0273ZM203.789 54.2148H202.875C202.875 53.2773 202.996 52.4336 203.238 51.6836C203.48 50.9258 203.82 50.2812 204.258 49.75C204.695 49.2109 205.215 48.8008 205.816 48.5195C206.426 48.2305 207.105 48.0859 207.855 48.0859C208.449 48.0859 208.992 48.1719 209.484 48.3438C209.977 48.5156 210.398 48.7891 210.75 49.1641C211.109 49.5391 211.383 50.0352 211.57 50.6523C211.766 51.2695 211.863 52.0234 211.863 52.9141V61H208.465V52.9023C208.465 52.3398 208.387 51.9023 208.23 51.5898C208.074 51.2773 207.844 51.0586 207.539 50.9336C207.242 50.8008 206.875 50.7344 206.438 50.7344C205.984 50.7344 205.59 50.8242 205.254 51.0039C204.926 51.1836 204.652 51.4336 204.434 51.7539C204.223 52.0664 204.062 52.4336 203.953 52.8555C203.844 53.2773 203.789 53.7305 203.789 54.2148ZM220.266 61.2344C219.281 61.2344 218.398 61.0781 217.617 60.7656C216.836 60.4453 216.172 60.0039 215.625 59.4414C215.086 58.8789 214.672 58.2266 214.383 57.4844C214.094 56.7344 213.949 55.9375 213.949 55.0938V54.625C213.949 53.6641 214.086 52.7852 214.359 51.9883C214.633 51.1914 215.023 50.5 215.531 49.9141C216.047 49.3281 216.672 48.8789 217.406 48.5664C218.141 48.2461 218.969 48.0859 219.891 48.0859C220.789 48.0859 221.586 48.2344 222.281 48.5312C222.977 48.8281 223.559 49.25 224.027 49.7969C224.504 50.3438 224.863 51 225.105 51.7656C225.348 52.5234 225.469 53.3672 225.469 54.2969V55.7031H215.391V53.4531H222.152V53.1953C222.152 52.7266 222.066 52.3086 221.895 51.9414C221.73 51.5664 221.48 51.2695 221.145 51.0508C220.809 50.832 220.379 50.7227 219.855 50.7227C219.41 50.7227 219.027 50.8203 218.707 51.0156C218.387 51.2109 218.125 51.4844 217.922 51.8359C217.727 52.1875 217.578 52.6016 217.477 53.0781C217.383 53.5469 217.336 54.0625 217.336 54.625V55.0938C217.336 55.6016 217.406 56.0703 217.547 56.5C217.695 56.9297 217.902 57.3008 218.168 57.6133C218.441 57.9258 218.77 58.168 219.152 58.3398C219.543 58.5117 219.984 58.5977 220.477 58.5977C221.086 58.5977 221.652 58.4805 222.176 58.2461C222.707 58.0039 223.164 57.6406 223.547 57.1562L225.188 58.9375C224.922 59.3203 224.559 59.6875 224.098 60.0391C223.645 60.3906 223.098 60.6797 222.457 60.9062C221.816 61.125 221.086 61.2344 220.266 61.2344ZM230.988 59.5703L234.352 48.3203H237.973L232.875 62.9102C232.766 63.2305 232.617 63.5742 232.43 63.9414C232.25 64.3086 232.004 64.6562 231.691 64.9844C231.387 65.3203 231 65.5938 230.531 65.8047C230.07 66.0156 229.504 66.1211 228.832 66.1211C228.512 66.1211 228.25 66.1016 228.047 66.0625C227.844 66.0234 227.602 65.9688 227.32 65.8984V63.4258C227.406 63.4258 227.496 63.4258 227.59 63.4258C227.684 63.4336 227.773 63.4375 227.859 63.4375C228.305 63.4375 228.668 63.3867 228.949 63.2852C229.23 63.1836 229.457 63.0273 229.629 62.8164C229.801 62.6133 229.938 62.3477 230.039 62.0195L230.988 59.5703ZM229.582 48.3203L232.336 57.5078L232.816 61.082L230.52 61.3281L225.961 48.3203H229.582Z" fill="#888888"/>
<path d="M124.102 84.875V119H115.898L103.828 97.7656V119H95.6016V84.875H103.828L115.898 106.109V84.875H124.102ZM151.852 112.672V119H134.602V112.672H151.852ZM137.531 84.875V119H129.305V84.875H137.531ZM167.016 84.875V119H158.789V84.875H167.016ZM177.281 84.875V91.2266H148.758V84.875H177.281ZM189 84.875V119H180.773V84.875H189ZM209.367 84.875L196.148 102.172L188.414 110.633L186.914 103.086L191.859 95.5859L199.219 84.875H209.367ZM199.641 119L190.828 103.625L197.227 98.9141L209.367 119H199.641ZM245.273 99.6406V106.414H221.883V99.6406H245.273ZM237.305 90.7344V115.578H229.922V90.7344H237.305ZM268.898 115.906L275.695 84.875H279.75L281.953 87.5234L274.711 119H270.234L268.898 115.906ZM267.094 84.875L272.836 116.141L271.359 119H266.18L258.938 84.875H267.094ZM285.68 115.977L291.375 84.875H299.508L292.266 119H287.109L285.68 115.977ZM282.68 84.875L289.641 116.094L288.234 119H283.758L276.352 87.4766L278.648 84.875H282.68ZM300.633 106.578V106.086C300.633 104.227 300.898 102.516 301.43 100.953C301.961 99.375 302.742 98.0078 303.773 96.8516C304.805 95.6953 306.078 94.7969 307.594 94.1562C309.109 93.5 310.859 93.1719 312.844 93.1719C314.844 93.1719 316.602 93.5 318.117 94.1562C319.648 94.7969 320.93 95.6953 321.961 96.8516C322.992 98.0078 323.773 99.375 324.305 100.953C324.836 102.516 325.102 104.227 325.102 106.086V106.578C325.102 108.422 324.836 110.133 324.305 111.711C323.773 113.273 322.992 114.641 321.961 115.812C320.93 116.969 319.656 117.867 318.141 118.508C316.625 119.148 314.875 119.469 312.891 119.469C310.906 119.469 309.148 119.148 307.617 118.508C306.086 117.867 304.805 116.969 303.773 115.812C302.742 114.641 301.961 113.273 301.43 111.711C300.898 110.133 300.633 108.422 300.633 106.578ZM308.531 106.086V106.578C308.531 107.531 308.602 108.422 308.742 109.25C308.883 110.078 309.117 110.805 309.445 111.43C309.773 112.039 310.219 112.516 310.781 112.859C311.344 113.203 312.047 113.375 312.891 113.375C313.719 113.375 314.406 113.203 314.953 112.859C315.516 112.516 315.961 112.039 316.289 111.43C316.617 110.805 316.852 110.078 316.992 109.25C317.133 108.422 317.203 107.531 317.203 106.578V106.086C317.203 105.164 317.133 104.297 316.992 103.484C316.852 102.656 316.617 101.93 316.289 101.305C315.961 100.664 315.516 100.164 314.953 99.8047C314.391 99.4453 313.688 99.2656 312.844 99.2656C312.016 99.2656 311.32 99.4453 310.758 99.8047C310.211 100.164 309.773 100.664 309.445 101.305C309.117 101.93 308.883 102.656 308.742 103.484C308.602 104.297 308.531 105.164 308.531 106.086ZM336.586 99.9219V119H328.688V93.6406H336.07L336.586 99.9219ZM344.086 93.4531L343.945 100.789C343.633 100.758 343.211 100.719 342.68 100.672C342.148 100.625 341.703 100.602 341.344 100.602C340.422 100.602 339.625 100.711 338.953 100.93C338.297 101.133 337.75 101.445 337.312 101.867C336.891 102.273 336.578 102.789 336.375 103.414C336.188 104.039 336.102 104.766 336.117 105.594L334.688 104.656C334.688 102.953 334.852 101.406 335.18 100.016C335.523 98.6094 336.008 97.3984 336.633 96.3828C337.258 95.3516 338.016 94.5625 338.906 94.0156C339.797 93.4531 340.797 93.1719 341.906 93.1719C342.297 93.1719 342.68 93.1953 343.055 93.2422C343.445 93.2891 343.789 93.3594 344.086 93.4531ZM360.914 113.188V83H368.859V119H361.734L360.914 113.188ZM345.352 106.625V106.133C345.352 104.211 345.562 102.461 345.984 100.883C346.406 99.2891 347.031 97.9219 347.859 96.7812C348.688 95.625 349.719 94.7344 350.953 94.1094C352.188 93.4844 353.609 93.1719 355.219 93.1719C356.656 93.1719 357.914 93.5078 358.992 94.1797C360.07 94.8359 360.992 95.7578 361.758 96.9453C362.523 98.1328 363.148 99.5234 363.633 101.117C364.117 102.695 364.484 104.398 364.734 106.227V106.812C364.484 108.531 364.117 110.156 363.633 111.688C363.148 113.203 362.523 114.547 361.758 115.719C360.992 116.891 360.062 117.812 358.969 118.484C357.891 119.141 356.625 119.469 355.172 119.469C353.562 119.469 352.141 119.148 350.906 118.508C349.688 117.867 348.664 116.969 347.836 115.812C347.023 114.656 346.406 113.297 345.984 111.734C345.562 110.172 345.352 108.469 345.352 106.625ZM353.25 106.133V106.625C353.25 107.578 353.312 108.461 353.438 109.273C353.562 110.086 353.773 110.805 354.07 111.43C354.383 112.039 354.789 112.516 355.289 112.859C355.805 113.203 356.438 113.375 357.188 113.375C358.203 113.375 359.039 113.133 359.695 112.648C360.367 112.164 360.859 111.477 361.172 110.586C361.5 109.695 361.641 108.648 361.594 107.445V105.594C361.625 104.562 361.555 103.656 361.383 102.875C361.211 102.078 360.938 101.414 360.562 100.883C360.203 100.352 359.742 99.9531 359.18 99.6875C358.633 99.4062 357.984 99.2656 357.234 99.2656C356.5 99.2656 355.875 99.4375 355.359 99.7812C354.859 100.125 354.453 100.609 354.141 101.234C353.828 101.844 353.602 102.57 353.461 103.414C353.32 104.242 353.25 105.148 353.25 106.133ZM397.031 112.906V119H373.219V113.844L384.188 102.312C385.156 101.203 385.938 100.211 386.531 99.3359C387.125 98.4453 387.555 97.6406 387.82 96.9219C388.102 96.2031 388.242 95.5547 388.242 94.9766C388.242 93.9922 388.094 93.1719 387.797 92.5156C387.516 91.8438 387.094 91.3359 386.531 90.9922C385.984 90.6484 385.305 90.4766 384.492 90.4766C383.68 90.4766 382.969 90.7109 382.359 91.1797C381.75 91.6484 381.273 92.2891 380.93 93.1016C380.602 93.9141 380.438 94.8281 380.438 95.8438H372.516C372.516 93.75 373.023 91.8359 374.039 90.1016C375.07 88.3672 376.5 86.9844 378.328 85.9531C380.156 84.9062 382.273 84.3828 384.68 84.3828C387.195 84.3828 389.305 84.7734 391.008 85.5547C392.711 86.3359 393.992 87.4688 394.852 88.9531C395.727 90.4219 396.164 92.1953 396.164 94.2734C396.164 95.4609 395.977 96.6016 395.602 97.6953C395.227 98.7891 394.688 99.875 393.984 100.953C393.281 102.016 392.422 103.109 391.406 104.234C390.406 105.359 389.266 106.555 387.984 107.82L383.578 112.906H397.031ZM414.469 110.961L421.57 84.875H430.781L419.273 119H413.32L414.469 110.961ZM408.023 84.875L415.125 110.961L416.32 119H410.297L398.859 84.875H408.023ZM444.164 119.469C442.102 119.469 440.258 119.148 438.633 118.508C437.008 117.852 435.633 116.953 434.508 115.812C433.398 114.672 432.547 113.359 431.953 111.875C431.375 110.391 431.086 108.82 431.086 107.164V106.273C431.086 104.414 431.344 102.695 431.859 101.117C432.375 99.5234 433.141 98.1328 434.156 96.9453C435.172 95.7578 436.445 94.8359 437.977 94.1797C439.508 93.5078 441.289 93.1719 443.32 93.1719C445.117 93.1719 446.727 93.4609 448.148 94.0391C449.57 94.6172 450.773 95.4453 451.758 96.5234C452.758 97.6016 453.516 98.9062 454.031 100.438C454.562 101.969 454.828 103.688 454.828 105.594V108.805H434.109V103.859H447.117V103.25C447.133 102.406 446.984 101.688 446.672 101.094C446.375 100.5 445.938 100.047 445.359 99.7344C444.781 99.4219 444.078 99.2656 443.25 99.2656C442.391 99.2656 441.68 99.4531 441.117 99.8281C440.57 100.203 440.141 100.719 439.828 101.375C439.531 102.016 439.32 102.758 439.195 103.602C439.07 104.445 439.008 105.336 439.008 106.273V107.164C439.008 108.102 439.133 108.953 439.383 109.719C439.648 110.484 440.023 111.141 440.508 111.688C441.008 112.219 441.602 112.633 442.289 112.93C442.992 113.227 443.789 113.375 444.68 113.375C445.758 113.375 446.82 113.172 447.867 112.766C448.914 112.359 449.812 111.688 450.562 110.75L454.148 115.016C453.633 115.75 452.898 116.461 451.945 117.148C451.008 117.836 449.883 118.398 448.57 118.836C447.258 119.258 445.789 119.469 444.164 119.469ZM468.75 113.375C469.484 113.375 470.109 113.242 470.625 112.977C471.156 112.695 471.555 112.305 471.82 111.805C472.102 111.289 472.234 110.672 472.219 109.953H479.648C479.664 111.859 479.195 113.531 478.242 114.969C477.305 116.391 476.023 117.5 474.398 118.297C472.789 119.078 470.969 119.469 468.938 119.469C466.953 119.469 465.219 119.148 463.734 118.508C462.25 117.852 461.008 116.945 460.008 115.789C459.023 114.617 458.281 113.25 457.781 111.688C457.297 110.125 457.055 108.43 457.055 106.602V106.062C457.055 104.234 457.297 102.539 457.781 100.977C458.281 99.3984 459.023 98.0312 460.008 96.875C461.008 95.7031 462.242 94.7969 463.711 94.1562C465.195 93.5 466.922 93.1719 468.891 93.1719C471 93.1719 472.859 93.5703 474.469 94.3672C476.094 95.1641 477.367 96.3203 478.289 97.8359C479.211 99.3516 479.664 101.188 479.648 103.344H472.219C472.234 102.578 472.117 101.891 471.867 101.281C471.617 100.672 471.227 100.188 470.695 99.8281C470.18 99.4531 469.516 99.2656 468.703 99.2656C467.891 99.2656 467.234 99.4453 466.734 99.8047C466.234 100.164 465.852 100.664 465.586 101.305C465.336 101.93 465.164 102.648 465.07 103.461C464.992 104.273 464.953 105.141 464.953 106.062V106.602C464.953 107.539 464.992 108.422 465.07 109.25C465.164 110.062 465.344 110.781 465.609 111.406C465.875 112.016 466.258 112.5 466.758 112.859C467.258 113.203 467.922 113.375 468.75 113.375ZM499.43 84.875H506.133L513.75 108.617L521.367 84.875H528.07L516.469 119H511.031L499.43 84.875ZM495.352 84.875H502.289L503.578 111.031V119H495.352V84.875ZM525.211 84.875H532.172V119H523.922V111.031L525.211 84.875ZM536.086 106.578V106.086C536.086 104.227 536.352 102.516 536.883 100.953C537.414 99.375 538.195 98.0078 539.227 96.8516C540.258 95.6953 541.531 94.7969 543.047 94.1562C544.562 93.5 546.312 93.1719 548.297 93.1719C550.297 93.1719 552.055 93.5 553.57 94.1562C555.102 94.7969 556.383 95.6953 557.414 96.8516C558.445 98.0078 559.227 99.375 559.758 100.953C560.289 102.516 560.555 104.227 560.555 106.086V106.578C560.555 108.422 560.289 110.133 559.758 111.711C559.227 113.273 558.445 114.641 557.414 115.812C556.383 116.969 555.109 117.867 553.594 118.508C552.078 119.148 550.328 119.469 548.344 119.469C546.359 119.469 544.602 119.148 543.07 118.508C541.539 117.867 540.258 116.969 539.227 115.812C538.195 114.641 537.414 113.273 536.883 111.711C536.352 110.133 536.086 108.422 536.086 106.578ZM543.984 106.086V106.578C543.984 107.531 544.055 108.422 544.195 109.25C544.336 110.078 544.57 110.805 544.898 111.43C545.227 112.039 545.672 112.516 546.234 112.859C546.797 113.203 547.5 113.375 548.344 113.375C549.172 113.375 549.859 113.203 550.406 112.859C550.969 112.516 551.414 112.039 551.742 111.43C552.07 110.805 552.305 110.078 552.445 109.25C552.586 108.422 552.656 107.531 552.656 106.578V106.086C552.656 105.164 552.586 104.297 552.445 103.484C552.305 102.656 552.07 101.93 551.742 101.305C551.414 100.664 550.969 100.164 550.406 99.8047C549.844 99.4453 549.141 99.2656 548.297 99.2656C547.469 99.2656 546.773 99.4453 546.211 99.8047C545.664 100.164 545.227 100.664 544.898 101.305C544.57 101.93 544.336 102.656 544.195 103.484C544.055 104.297 543.984 105.164 543.984 106.086ZM578.648 113.188V83H586.594V119H579.469L578.648 113.188ZM563.086 106.625V106.133C563.086 104.211 563.297 102.461 563.719 100.883C564.141 99.2891 564.766 97.9219 565.594 96.7812C566.422 95.625 567.453 94.7344 568.688 94.1094C569.922 93.4844 571.344 93.1719 572.953 93.1719C574.391 93.1719 575.648 93.5078 576.727 94.1797C577.805 94.8359 578.727 95.7578 579.492 96.9453C580.258 98.1328 580.883 99.5234 581.367 101.117C581.852 102.695 582.219 104.398 582.469 106.227V106.812C582.219 108.531 581.852 110.156 581.367 111.688C580.883 113.203 580.258 114.547 579.492 115.719C578.727 116.891 577.797 117.812 576.703 118.484C575.625 119.141 574.359 119.469 572.906 119.469C571.297 119.469 569.875 119.148 568.641 118.508C567.422 117.867 566.398 116.969 565.57 115.812C564.758 114.656 564.141 113.297 563.719 111.734C563.297 110.172 563.086 108.469 563.086 106.625ZM570.984 106.133V106.625C570.984 107.578 571.047 108.461 571.172 109.273C571.297 110.086 571.508 110.805 571.805 111.43C572.117 112.039 572.523 112.516 573.023 112.859C573.539 113.203 574.172 113.375 574.922 113.375C575.938 113.375 576.773 113.133 577.43 112.648C578.102 112.164 578.594 111.477 578.906 110.586C579.234 109.695 579.375 108.648 579.328 107.445V105.594C579.359 104.562 579.289 103.656 579.117 102.875C578.945 102.078 578.672 101.414 578.297 100.883C577.938 100.352 577.477 99.9531 576.914 99.6875C576.367 99.4062 575.719 99.2656 574.969 99.2656C574.234 99.2656 573.609 99.4375 573.094 99.7812C572.594 100.125 572.188 100.609 571.875 101.234C571.562 101.844 571.336 102.57 571.195 103.414C571.055 104.242 570.984 105.148 570.984 106.133ZM603.352 119.469C601.289 119.469 599.445 119.148 597.82 118.508C596.195 117.852 594.82 116.953 593.695 115.812C592.586 114.672 591.734 113.359 591.141 111.875C590.562 110.391 590.273 108.82 590.273 107.164V106.273C590.273 104.414 590.531 102.695 591.047 101.117C591.562 99.5234 592.328 98.1328 593.344 96.9453C594.359 95.7578 595.633 94.8359 597.164 94.1797C598.695 93.5078 600.477 93.1719 602.508 93.1719C604.305 93.1719 605.914 93.4609 607.336 94.0391C608.758 94.6172 609.961 95.4453 610.945 96.5234C611.945 97.6016 612.703 98.9062 613.219 100.438C613.75 101.969 614.016 103.688 614.016 105.594V108.805H593.297V103.859H606.305V103.25C606.32 102.406 606.172 101.688 605.859 101.094C605.562 100.5 605.125 100.047 604.547 99.7344C603.969 99.4219 603.266 99.2656 602.438 99.2656C601.578 99.2656 600.867 99.4531 600.305 99.8281C599.758 100.203 599.328 100.719 599.016 101.375C598.719 102.016 598.508 102.758 598.383 103.602C598.258 104.445 598.195 105.336 598.195 106.273V107.164C598.195 108.102 598.32 108.953 598.57 109.719C598.836 110.484 599.211 111.141 599.695 111.688C600.195 112.219 600.789 112.633 601.477 112.93C602.18 113.227 602.977 113.375 603.867 113.375C604.945 113.375 606.008 113.172 607.055 112.766C608.102 112.359 609 111.688 609.75 110.75L613.336 115.016C612.82 115.75 612.086 116.461 611.133 117.148C610.195 117.836 609.07 118.398 607.758 118.836C606.445 119.258 604.977 119.469 603.352 119.469ZM625.57 83V119H617.648V83H625.57ZM657.211 112.836V93.6406H665.133V119H657.727L657.211 112.836ZM657.961 107.68L660.023 107.633C660.023 109.336 659.82 110.914 659.414 112.367C659.008 113.805 658.406 115.055 657.609 116.117C656.828 117.18 655.859 118.008 654.703 118.602C653.562 119.18 652.242 119.469 650.742 119.469C649.492 119.469 648.344 119.297 647.297 118.953C646.266 118.594 645.375 118.039 644.625 117.289C643.875 116.523 643.289 115.547 642.867 114.359C642.461 113.156 642.258 111.719 642.258 110.047V93.6406H650.156V110.094C650.156 110.656 650.227 111.141 650.367 111.547C650.508 111.953 650.711 112.297 650.977 112.578C651.242 112.844 651.57 113.047 651.961 113.188C652.367 113.312 652.828 113.375 653.344 113.375C654.531 113.375 655.461 113.125 656.133 112.625C656.805 112.125 657.273 111.445 657.539 110.586C657.82 109.727 657.961 108.758 657.961 107.68ZM682.781 111.875C682.781 111.438 682.633 111.062 682.336 110.75C682.055 110.422 681.555 110.125 680.836 109.859C680.117 109.578 679.109 109.297 677.812 109.016C676.578 108.75 675.414 108.398 674.32 107.961C673.242 107.523 672.297 106.992 671.484 106.367C670.672 105.742 670.031 105 669.562 104.141C669.109 103.281 668.883 102.297 668.883 101.188C668.883 100.109 669.109 99.0938 669.562 98.1406C670.031 97.1719 670.711 96.3203 671.602 95.5859C672.508 94.8359 673.609 94.25 674.906 93.8281C676.203 93.3906 677.68 93.1719 679.336 93.1719C681.617 93.1719 683.586 93.5234 685.242 94.2266C686.898 94.9141 688.172 95.8828 689.062 97.1328C689.969 98.3672 690.422 99.7969 690.422 101.422H682.523C682.523 100.781 682.414 100.234 682.195 99.7812C681.992 99.3281 681.656 98.9844 681.188 98.75C680.719 98.5 680.094 98.375 679.312 98.375C678.766 98.375 678.266 98.4766 677.812 98.6797C677.375 98.8828 677.023 99.1641 676.758 99.5234C676.492 99.8828 676.359 100.305 676.359 100.789C676.359 101.133 676.438 101.445 676.594 101.727C676.766 101.992 677.023 102.242 677.367 102.477C677.711 102.695 678.148 102.898 678.68 103.086C679.211 103.258 679.852 103.414 680.602 103.555C682.305 103.867 683.898 104.312 685.383 104.891C686.867 105.469 688.07 106.289 688.992 107.352C689.93 108.414 690.398 109.844 690.398 111.641C690.398 112.766 690.141 113.805 689.625 114.758C689.109 115.695 688.367 116.523 687.398 117.242C686.43 117.945 685.266 118.492 683.906 118.883C682.547 119.273 681.016 119.469 679.312 119.469C676.891 119.469 674.844 119.039 673.172 118.18C671.5 117.305 670.234 116.211 669.375 114.898C668.531 113.57 668.109 112.227 668.109 110.867H675.469C675.5 111.648 675.688 112.289 676.031 112.789C676.391 113.289 676.867 113.656 677.461 113.891C678.055 114.125 678.742 114.242 679.523 114.242C680.242 114.242 680.836 114.141 681.305 113.938C681.789 113.734 682.156 113.461 682.406 113.117C682.656 112.758 682.781 112.344 682.781 111.875ZM702.445 93.6406V119H694.523V93.6406H702.445ZM694.055 87.1016C694.055 85.9766 694.461 85.0547 695.273 84.3359C696.086 83.6172 697.141 83.2578 698.438 83.2578C699.734 83.2578 700.789 83.6172 701.602 84.3359C702.414 85.0547 702.82 85.9766 702.82 87.1016C702.82 88.2266 702.414 89.1484 701.602 89.8672C700.789 90.5859 699.734 90.9453 698.438 90.9453C697.141 90.9453 696.086 90.5859 695.273 89.8672C694.461 89.1484 694.055 88.2266 694.055 87.1016ZM715.078 99.0547V119H707.18V93.6406H714.586L715.078 99.0547ZM714.141 105.453L712.289 105.5C712.289 103.562 712.523 101.836 712.992 100.32C713.461 98.7891 714.125 97.4922 714.984 96.4297C715.844 95.3672 716.867 94.5625 718.055 94.0156C719.258 93.4531 720.594 93.1719 722.062 93.1719C723.234 93.1719 724.305 93.3438 725.273 93.6875C726.258 94.0312 727.102 94.5859 727.805 95.3516C728.523 96.1172 729.07 97.1328 729.445 98.3984C729.836 99.6484 730.031 101.195 730.031 103.039V119H722.086V103.016C722.086 102 721.945 101.227 721.664 100.695C721.383 100.148 720.977 99.7734 720.445 99.5703C719.914 99.3672 719.266 99.2656 718.5 99.2656C717.688 99.2656 717 99.4219 716.438 99.7344C715.875 100.047 715.422 100.484 715.078 101.047C714.75 101.594 714.508 102.242 714.352 102.992C714.211 103.742 714.141 104.562 714.141 105.453ZM750.352 93.6406H757.523V118.016C757.523 120.359 756.984 122.344 755.906 123.969C754.828 125.609 753.32 126.852 751.383 127.695C749.461 128.555 747.211 128.984 744.633 128.984C743.492 128.984 742.328 128.836 741.141 128.539C739.953 128.258 738.844 127.836 737.812 127.273C736.781 126.711 735.914 126.016 735.211 125.188L738.516 120.547C739.156 121.266 739.961 121.875 740.93 122.375C741.898 122.891 743.039 123.148 744.352 123.148C745.492 123.148 746.445 122.945 747.211 122.539C747.992 122.133 748.586 121.539 748.992 120.758C749.398 119.992 749.602 119.062 749.602 117.969V99.6406L750.352 93.6406ZM733.5 106.625V106.133C733.5 104.211 733.734 102.461 734.203 100.883C734.688 99.2891 735.375 97.9219 736.266 96.7812C737.172 95.625 738.266 94.7344 739.547 94.1094C740.828 93.4844 742.273 93.1719 743.883 93.1719C745.617 93.1719 747.039 93.5078 748.148 94.1797C749.273 94.8359 750.172 95.7578 750.844 96.9453C751.531 98.1328 752.062 99.5234 752.438 101.117C752.828 102.695 753.156 104.398 753.422 106.227V106.812C753.156 108.531 752.789 110.156 752.32 111.688C751.867 113.203 751.273 114.547 750.539 115.719C749.805 116.891 748.883 117.812 747.773 118.484C746.68 119.141 745.367 119.469 743.836 119.469C742.242 119.469 740.805 119.148 739.523 118.508C738.258 117.867 737.172 116.969 736.266 115.812C735.375 114.656 734.688 113.297 734.203 111.734C733.734 110.172 733.5 108.469 733.5 106.625ZM741.398 106.133V106.625C741.398 107.578 741.484 108.461 741.656 109.273C741.844 110.086 742.125 110.805 742.5 111.43C742.875 112.039 743.336 112.516 743.883 112.859C744.445 113.203 745.102 113.375 745.852 113.375C746.992 113.375 747.914 113.133 748.617 112.648C749.32 112.164 749.828 111.477 750.141 110.586C750.453 109.695 750.586 108.648 750.539 107.445V105.594C750.57 104.562 750.5 103.656 750.328 102.875C750.156 102.078 749.883 101.414 749.508 100.883C749.148 100.352 748.664 99.9531 748.055 99.6875C747.461 99.4062 746.742 99.2656 745.898 99.2656C745.164 99.2656 744.516 99.4375 743.953 99.7812C743.391 100.125 742.922 100.609 742.547 101.234C742.172 101.844 741.883 102.57 741.68 103.414C741.492 104.242 741.398 105.148 741.398 106.133ZM781.992 98.5156V128.75H774.094V93.6406H781.453L781.992 98.5156ZM797.555 106.016V106.508C797.555 108.352 797.344 110.062 796.922 111.641C796.5 113.219 795.875 114.594 795.047 115.766C794.219 116.938 793.188 117.852 791.953 118.508C790.734 119.148 789.32 119.469 787.711 119.469C786.195 119.469 784.891 119.133 783.797 118.461C782.703 117.789 781.789 116.859 781.055 115.672C780.32 114.484 779.727 113.125 779.273 111.594C778.82 110.062 778.461 108.445 778.195 106.742V106.109C778.461 104.281 778.82 102.586 779.273 101.023C779.727 99.4453 780.32 98.0703 781.055 96.8984C781.789 95.7266 782.695 94.8125 783.773 94.1562C784.867 93.5 786.172 93.1719 787.688 93.1719C789.297 93.1719 790.711 93.4766 791.93 94.0859C793.164 94.6953 794.195 95.5703 795.023 96.7109C795.867 97.8359 796.5 99.1875 796.922 100.766C797.344 102.344 797.555 104.094 797.555 106.016ZM789.656 106.508V106.016C789.656 105.031 789.586 104.133 789.445 103.32C789.305 102.492 789.078 101.773 788.766 101.164C788.469 100.555 788.07 100.086 787.57 99.7578C787.07 99.4297 786.453 99.2656 785.719 99.2656C784.875 99.2656 784.164 99.3984 783.586 99.6641C783.023 99.9141 782.57 100.305 782.227 100.836C781.898 101.352 781.664 102 781.523 102.781C781.398 103.547 781.344 104.445 781.359 105.477V107.398C781.328 108.586 781.445 109.633 781.711 110.539C781.977 111.43 782.438 112.125 783.094 112.625C783.75 113.125 784.641 113.375 785.766 113.375C786.516 113.375 787.141 113.203 787.641 112.859C788.141 112.5 788.539 112.008 788.836 111.383C789.133 110.742 789.344 110.008 789.469 109.18C789.594 108.352 789.656 107.461 789.656 106.508ZM808.57 116.023L815.133 93.6406H823.617L813.422 122.773C813.203 123.414 812.914 124.102 812.555 124.836C812.195 125.586 811.703 126.297 811.078 126.969C810.453 127.641 809.648 128.188 808.664 128.609C807.695 129.031 806.492 129.242 805.055 129.242C804.289 129.242 803.727 129.203 803.367 129.125C803.023 129.062 802.492 128.945 801.773 128.773V123.125C801.977 123.125 802.148 123.125 802.289 123.125C802.445 123.125 802.617 123.125 802.805 123.125C803.648 123.125 804.32 123.039 804.82 122.867C805.336 122.695 805.727 122.445 805.992 122.117C806.273 121.789 806.492 121.391 806.648 120.922L808.57 116.023ZM806.906 93.6406L811.898 111.383L812.766 119.75H807.469L798.445 93.6406H806.906ZM839.039 93.6406V99.125H823.758V93.6406H839.039ZM826.969 87.3359H834.867V110.727C834.867 111.398 834.945 111.922 835.102 112.297C835.258 112.656 835.523 112.914 835.898 113.07C836.289 113.211 836.805 113.281 837.445 113.281C837.898 113.281 838.273 113.273 838.57 113.258C838.867 113.227 839.148 113.188 839.414 113.141V118.789C838.742 119.008 838.039 119.172 837.305 119.281C836.57 119.406 835.789 119.469 834.961 119.469C833.273 119.469 831.828 119.203 830.625 118.672C829.438 118.141 828.531 117.305 827.906 116.164C827.281 115.023 826.969 113.539 826.969 111.711V87.3359ZM849.914 83V119H842.016V83H849.914ZM848.977 105.453L847.125 105.5C847.125 103.719 847.344 102.078 847.781 100.578C848.219 99.0781 848.844 97.7734 849.656 96.6641C850.469 95.5547 851.445 94.6953 852.586 94.0859C853.727 93.4766 854.992 93.1719 856.383 93.1719C857.633 93.1719 858.773 93.3516 859.805 93.7109C860.852 94.0703 861.75 94.6484 862.5 95.4453C863.266 96.2422 863.852 97.2812 864.258 98.5625C864.68 99.8438 864.891 101.406 864.891 103.25V119H856.945V103.203C856.945 102.172 856.797 101.375 856.5 100.812C856.219 100.234 855.812 99.8359 855.281 99.6172C854.75 99.3828 854.102 99.2656 853.336 99.2656C852.414 99.2656 851.664 99.4219 851.086 99.7344C850.508 100.047 850.062 100.484 849.75 101.047C849.453 101.594 849.25 102.242 849.141 102.992C849.031 103.742 848.977 104.562 848.977 105.453ZM868.289 106.578V106.086C868.289 104.227 868.555 102.516 869.086 100.953C869.617 99.375 870.398 98.0078 871.43 96.8516C872.461 95.6953 873.734 94.7969 875.25 94.1562C876.766 93.5 878.516 93.1719 880.5 93.1719C882.5 93.1719 884.258 93.5 885.773 94.1562C887.305 94.7969 888.586 95.6953 889.617 96.8516C890.648 98.0078 891.43 99.375 891.961 100.953C892.492 102.516 892.758 104.227 892.758 106.086V106.578C892.758 108.422 892.492 110.133 891.961 111.711C891.43 113.273 890.648 114.641 889.617 115.812C888.586 116.969 887.312 117.867 885.797 118.508C884.281 119.148 882.531 119.469 880.547 119.469C878.562 119.469 876.805 119.148 875.273 118.508C873.742 117.867 872.461 116.969 871.43 115.812C870.398 114.641 869.617 113.273 869.086 111.711C868.555 110.133 868.289 108.422 868.289 106.578ZM876.188 106.086V106.578C876.188 107.531 876.258 108.422 876.398 109.25C876.539 110.078 876.773 110.805 877.102 111.43C877.43 112.039 877.875 112.516 878.438 112.859C879 113.203 879.703 113.375 880.547 113.375C881.375 113.375 882.062 113.203 882.609 112.859C883.172 112.516 883.617 112.039 883.945 111.43C884.273 110.805 884.508 110.078 884.648 109.25C884.789 108.422 884.859 107.531 884.859 106.578V106.086C884.859 105.164 884.789 104.297 884.648 103.484C884.508 102.656 884.273 101.93 883.945 101.305C883.617 100.664 883.172 100.164 882.609 99.8047C882.047 99.4453 881.344 99.2656 880.5 99.2656C879.672 99.2656 878.977 99.4453 878.414 99.8047C877.867 100.164 877.43 100.664 877.102 101.305C876.773 101.93 876.539 102.656 876.398 103.484C876.258 104.297 876.188 105.164 876.188 106.086ZM904.031 99.0547V119H896.133V93.6406H903.539L904.031 99.0547ZM903.094 105.453L901.242 105.5C901.242 103.562 901.477 101.836 901.945 100.32C902.414 98.7891 903.078 97.4922 903.938 96.4297C904.797 95.3672 905.82 94.5625 907.008 94.0156C908.211 93.4531 909.547 93.1719 911.016 93.1719C912.188 93.1719 913.258 93.3438 914.227 93.6875C915.211 94.0312 916.055 94.5859 916.758 95.3516C917.477 96.1172 918.023 97.1328 918.398 98.3984C918.789 99.6484 918.984 101.195 918.984 103.039V119H911.039V103.016C911.039 102 910.898 101.227 910.617 100.695C910.336 100.148 909.93 99.7734 909.398 99.5703C908.867 99.3672 908.219 99.2656 907.453 99.2656C906.641 99.2656 905.953 99.4219 905.391 99.7344C904.828 100.047 904.375 100.484 904.031 101.047C903.703 101.594 903.461 102.242 903.305 102.992C903.164 103.742 903.094 104.562 903.094 105.453ZM95.6016 140.875H109.031C111.656 140.875 113.938 141.266 115.875 142.047C117.812 142.828 119.305 143.984 120.352 145.516C121.414 147.047 121.945 148.938 121.945 151.188C121.945 153.141 121.641 154.773 121.031 156.086C120.422 157.398 119.57 158.484 118.477 159.344C117.398 160.188 116.141 160.883 114.703 161.43L112.008 162.953H100.734L100.688 156.602H109.031C110.078 156.602 110.945 156.414 111.633 156.039C112.32 155.664 112.836 155.133 113.18 154.445C113.539 153.742 113.719 152.906 113.719 151.938C113.719 150.953 113.539 150.109 113.18 149.406C112.82 148.703 112.289 148.164 111.586 147.789C110.898 147.414 110.047 147.227 109.031 147.227H103.828V175H95.6016V140.875ZM114.281 175L106.734 159.906L115.453 159.859L123.094 174.648V175H114.281ZM138.82 175.469C136.758 175.469 134.914 175.148 133.289 174.508C131.664 173.852 130.289 172.953 129.164 171.812C128.055 170.672 127.203 169.359 126.609 167.875C126.031 166.391 125.742 164.82 125.742 163.164V162.273C125.742 160.414 126 158.695 126.516 157.117C127.031 155.523 127.797 154.133 128.812 152.945C129.828 151.758 131.102 150.836 132.633 150.18C134.164 149.508 135.945 149.172 137.977 149.172C139.773 149.172 141.383 149.461 142.805 150.039C144.227 150.617 145.43 151.445 146.414 152.523C147.414 153.602 148.172 154.906 148.688 156.438C149.219 157.969 149.484 159.688 149.484 161.594V164.805H128.766V159.859H141.773V159.25C141.789 158.406 141.641 157.688 141.328 157.094C141.031 156.5 140.594 156.047 140.016 155.734C139.438 155.422 138.734 155.266 137.906 155.266C137.047 155.266 136.336 155.453 135.773 155.828C135.227 156.203 134.797 156.719 134.484 157.375C134.188 158.016 133.977 158.758 133.852 159.602C133.727 160.445 133.664 161.336 133.664 162.273V163.164C133.664 164.102 133.789 164.953 134.039 165.719C134.305 166.484 134.68 167.141 135.164 167.688C135.664 168.219 136.258 168.633 136.945 168.93C137.648 169.227 138.445 169.375 139.336 169.375C140.414 169.375 141.477 169.172 142.523 168.766C143.57 168.359 144.469 167.688 145.219 166.75L148.805 171.016C148.289 171.75 147.555 172.461 146.602 173.148C145.664 173.836 144.539 174.398 143.227 174.836C141.914 175.258 140.445 175.469 138.82 175.469ZM165.867 168.625V158.172C165.867 157.453 165.766 156.836 165.562 156.32C165.359 155.805 165.039 155.406 164.602 155.125C164.164 154.828 163.578 154.68 162.844 154.68C162.25 154.68 161.742 154.781 161.32 154.984C160.898 155.188 160.578 155.492 160.359 155.898C160.141 156.305 160.031 156.82 160.031 157.445H152.133C152.133 156.273 152.391 155.188 152.906 154.188C153.438 153.172 154.188 152.289 155.156 151.539C156.141 150.789 157.312 150.211 158.672 149.805C160.047 149.383 161.578 149.172 163.266 149.172C165.281 149.172 167.078 149.508 168.656 150.18C170.25 150.852 171.508 151.859 172.43 153.203C173.352 154.531 173.812 156.203 173.812 158.219V168.602C173.812 170.258 173.906 171.516 174.094 172.375C174.281 173.219 174.547 173.961 174.891 174.602V175H166.969C166.594 174.219 166.312 173.266 166.125 172.141C165.953 171 165.867 169.828 165.867 168.625ZM166.828 159.508L166.875 163.727H163.383C162.648 163.727 162.023 163.828 161.508 164.031C161.008 164.234 160.602 164.516 160.289 164.875C159.992 165.219 159.773 165.609 159.633 166.047C159.508 166.484 159.445 166.945 159.445 167.43C159.445 167.898 159.555 168.32 159.773 168.695C160.008 169.055 160.32 169.336 160.711 169.539C161.102 169.742 161.539 169.844 162.023 169.844C162.898 169.844 163.641 169.68 164.25 169.352C164.875 169.008 165.352 168.594 165.68 168.109C166.008 167.625 166.172 167.172 166.172 166.75L167.906 169.984C167.594 170.609 167.234 171.242 166.828 171.883C166.438 172.523 165.945 173.117 165.352 173.664C164.773 174.195 164.062 174.633 163.219 174.977C162.375 175.305 161.352 175.469 160.148 175.469C158.586 175.469 157.148 175.148 155.836 174.508C154.539 173.867 153.5 172.977 152.719 171.836C151.938 170.68 151.547 169.352 151.547 167.852C151.547 166.539 151.781 165.367 152.25 164.336C152.734 163.305 153.461 162.43 154.43 161.711C155.398 160.992 156.633 160.445 158.133 160.07C159.633 159.695 161.398 159.508 163.43 159.508H166.828ZM188.906 169.375C189.641 169.375 190.266 169.242 190.781 168.977C191.312 168.695 191.711 168.305 191.977 167.805C192.258 167.289 192.391 166.672 192.375 165.953H199.805C199.82 167.859 199.352 169.531 198.398 170.969C197.461 172.391 196.18 173.5 194.555 174.297C192.945 175.078 191.125 175.469 189.094 175.469C187.109 175.469 185.375 175.148 183.891 174.508C182.406 173.852 181.164 172.945 180.164 171.789C179.18 170.617 178.438 169.25 177.938 167.688C177.453 166.125 177.211 164.43 177.211 162.602V162.062C177.211 160.234 177.453 158.539 177.938 156.977C178.438 155.398 179.18 154.031 180.164 152.875C181.164 151.703 182.398 150.797 183.867 150.156C185.352 149.5 187.078 149.172 189.047 149.172C191.156 149.172 193.016 149.57 194.625 150.367C196.25 151.164 197.523 152.32 198.445 153.836C199.367 155.352 199.82 157.188 199.805 159.344H192.375C192.391 158.578 192.273 157.891 192.023 157.281C191.773 156.672 191.383 156.188 190.852 155.828C190.336 155.453 189.672 155.266 188.859 155.266C188.047 155.266 187.391 155.445 186.891 155.805C186.391 156.164 186.008 156.664 185.742 157.305C185.492 157.93 185.32 158.648 185.227 159.461C185.148 160.273 185.109 161.141 185.109 162.062V162.602C185.109 163.539 185.148 164.422 185.227 165.25C185.32 166.062 185.5 166.781 185.766 167.406C186.031 168.016 186.414 168.5 186.914 168.859C187.414 169.203 188.078 169.375 188.906 169.375ZM216.539 149.641V155.125H201.258V149.641H216.539ZM204.469 143.336H212.367V166.727C212.367 167.398 212.445 167.922 212.602 168.297C212.758 168.656 213.023 168.914 213.398 169.07C213.789 169.211 214.305 169.281 214.945 169.281C215.398 169.281 215.773 169.273 216.07 169.258C216.367 169.227 216.648 169.188 216.914 169.141V174.789C216.242 175.008 215.539 175.172 214.805 175.281C214.07 175.406 213.289 175.469 212.461 175.469C210.773 175.469 209.328 175.203 208.125 174.672C206.938 174.141 206.031 173.305 205.406 172.164C204.781 171.023 204.469 169.539 204.469 167.711V143.336ZM232.242 161.781V161.125C232.242 157.891 232.57 154.945 233.227 152.289C233.898 149.617 234.797 147.273 235.922 145.258C237.047 143.242 238.297 141.57 239.672 140.242C241.062 138.898 242.484 137.938 243.938 137.359L245.414 141.25C244.539 141.891 243.688 142.766 242.859 143.875C242.047 144.969 241.312 146.32 240.656 147.93C240 149.539 239.477 151.43 239.086 153.602C238.711 155.773 238.523 158.266 238.523 161.078V161.828C238.523 164.641 238.711 167.133 239.086 169.305C239.477 171.477 240 173.367 240.656 174.977C241.312 176.586 242.047 177.938 242.859 179.031C243.688 180.141 244.539 181.016 245.414 181.656L243.938 185.547C242.484 184.953 241.062 183.992 239.672 182.664C238.297 181.336 237.047 179.664 235.922 177.648C234.797 175.633 233.898 173.297 233.227 170.641C232.57 167.969 232.242 165.016 232.242 161.781ZM256.336 139V175H248.438V139H256.336ZM255.398 161.453L253.547 161.5C253.547 159.719 253.766 158.078 254.203 156.578C254.641 155.078 255.266 153.773 256.078 152.664C256.891 151.555 257.867 150.695 259.008 150.086C260.148 149.477 261.414 149.172 262.805 149.172C264.055 149.172 265.195 149.352 266.227 149.711C267.273 150.07 268.172 150.648 268.922 151.445C269.688 152.242 270.273 153.281 270.68 154.562C271.102 155.844 271.312 157.406 271.312 159.25V175H263.367V159.203C263.367 158.172 263.219 157.375 262.922 156.812C262.641 156.234 262.234 155.836 261.703 155.617C261.172 155.383 260.523 155.266 259.758 155.266C258.836 155.266 258.086 155.422 257.508 155.734C256.93 156.047 256.484 156.484 256.172 157.047C255.875 157.594 255.672 158.242 255.562 158.992C255.453 159.742 255.398 160.562 255.398 161.453ZM289.055 149.641V155.125H273.773V149.641H289.055ZM276.984 143.336H284.883V166.727C284.883 167.398 284.961 167.922 285.117 168.297C285.273 168.656 285.539 168.914 285.914 169.07C286.305 169.211 286.82 169.281 287.461 169.281C287.914 169.281 288.289 169.273 288.586 169.258C288.883 169.227 289.164 169.188 289.43 169.141V174.789C288.758 175.008 288.055 175.172 287.32 175.281C286.586 175.406 285.805 175.469 284.977 175.469C283.289 175.469 281.844 175.203 280.641 174.672C279.453 174.141 278.547 173.305 277.922 172.164C277.297 171.023 276.984 169.539 276.984 167.711V143.336ZM300.164 155.008V175H292.266V149.641H299.672L300.164 155.008ZM299.203 161.453L297.398 161.5C297.398 159.719 297.609 158.078 298.031 156.578C298.453 155.078 299.078 153.773 299.906 152.664C300.734 151.555 301.75 150.695 302.953 150.086C304.172 149.477 305.578 149.172 307.172 149.172C308.281 149.172 309.289 149.344 310.195 149.688C311.102 150.016 311.883 150.539 312.539 151.258C313.195 151.961 313.695 152.883 314.039 154.023C314.398 155.148 314.578 156.5 314.578 158.078V175H306.68V159.086C306.68 158.008 306.555 157.195 306.305 156.648C306.07 156.102 305.727 155.734 305.273 155.547C304.82 155.359 304.266 155.266 303.609 155.266C302.922 155.266 302.305 155.422 301.758 155.734C301.211 156.047 300.742 156.484 300.352 157.047C299.977 157.594 299.688 158.242 299.484 158.992C299.297 159.742 299.203 160.562 299.203 161.453ZM313.688 161.453L311.484 161.5C311.484 159.719 311.68 158.078 312.07 156.578C312.477 155.078 313.078 153.773 313.875 152.664C314.688 151.555 315.695 150.695 316.898 150.086C318.102 149.477 319.5 149.172 321.094 149.172C322.25 149.172 323.312 149.344 324.281 149.688C325.25 150.031 326.086 150.586 326.789 151.352C327.492 152.117 328.039 153.133 328.43 154.398C328.82 155.648 329.016 157.195 329.016 159.039V175H321.094V159.039C321.094 157.992 320.969 157.203 320.719 156.672C320.484 156.125 320.141 155.758 319.688 155.57C319.234 155.367 318.695 155.266 318.07 155.266C317.32 155.266 316.672 155.422 316.125 155.734C315.578 156.047 315.117 156.484 314.742 157.047C314.383 157.594 314.117 158.242 313.945 158.992C313.773 159.742 313.688 160.562 313.688 161.453ZM341.883 139V175H333.961V139H341.883ZM380.93 155.641V162.414H357.539V155.641H380.93ZM372.961 146.734V171.578H365.578V146.734H372.961ZM407.016 169.375C407.75 169.375 408.375 169.242 408.891 168.977C409.422 168.695 409.82 168.305 410.086 167.805C410.367 167.289 410.5 166.672 410.484 165.953H417.914C417.93 167.859 417.461 169.531 416.508 170.969C415.57 172.391 414.289 173.5 412.664 174.297C411.055 175.078 409.234 175.469 407.203 175.469C405.219 175.469 403.484 175.148 402 174.508C400.516 173.852 399.273 172.945 398.273 171.789C397.289 170.617 396.547 169.25 396.047 167.688C395.562 166.125 395.32 164.43 395.32 162.602V162.062C395.32 160.234 395.562 158.539 396.047 156.977C396.547 155.398 397.289 154.031 398.273 152.875C399.273 151.703 400.508 150.797 401.977 150.156C403.461 149.5 405.188 149.172 407.156 149.172C409.266 149.172 411.125 149.57 412.734 150.367C414.359 151.164 415.633 152.32 416.555 153.836C417.477 155.352 417.93 157.188 417.914 159.344H410.484C410.5 158.578 410.383 157.891 410.133 157.281C409.883 156.672 409.492 156.188 408.961 155.828C408.445 155.453 407.781 155.266 406.969 155.266C406.156 155.266 405.5 155.445 405 155.805C404.5 156.164 404.117 156.664 403.852 157.305C403.602 157.93 403.43 158.648 403.336 159.461C403.258 160.273 403.219 161.141 403.219 162.062V162.602C403.219 163.539 403.258 164.422 403.336 165.25C403.43 166.062 403.609 166.781 403.875 167.406C404.141 168.016 404.523 168.5 405.023 168.859C405.523 169.203 406.188 169.375 407.016 169.375ZM434.578 167.875C434.578 167.438 434.43 167.062 434.133 166.75C433.852 166.422 433.352 166.125 432.633 165.859C431.914 165.578 430.906 165.297 429.609 165.016C428.375 164.75 427.211 164.398 426.117 163.961C425.039 163.523 424.094 162.992 423.281 162.367C422.469 161.742 421.828 161 421.359 160.141C420.906 159.281 420.68 158.297 420.68 157.188C420.68 156.109 420.906 155.094 421.359 154.141C421.828 153.172 422.508 152.32 423.398 151.586C424.305 150.836 425.406 150.25 426.703 149.828C428 149.391 429.477 149.172 431.133 149.172C433.414 149.172 435.383 149.523 437.039 150.227C438.695 150.914 439.969 151.883 440.859 153.133C441.766 154.367 442.219 155.797 442.219 157.422H434.32C434.32 156.781 434.211 156.234 433.992 155.781C433.789 155.328 433.453 154.984 432.984 154.75C432.516 154.5 431.891 154.375 431.109 154.375C430.562 154.375 430.062 154.477 429.609 154.68C429.172 154.883 428.82 155.164 428.555 155.523C428.289 155.883 428.156 156.305 428.156 156.789C428.156 157.133 428.234 157.445 428.391 157.727C428.562 157.992 428.82 158.242 429.164 158.477C429.508 158.695 429.945 158.898 430.477 159.086C431.008 159.258 431.648 159.414 432.398 159.555C434.102 159.867 435.695 160.312 437.18 160.891C438.664 161.469 439.867 162.289 440.789 163.352C441.727 164.414 442.195 165.844 442.195 167.641C442.195 168.766 441.938 169.805 441.422 170.758C440.906 171.695 440.164 172.523 439.195 173.242C438.227 173.945 437.062 174.492 435.703 174.883C434.344 175.273 432.812 175.469 431.109 175.469C428.688 175.469 426.641 175.039 424.969 174.18C423.297 173.305 422.031 172.211 421.172 170.898C420.328 169.57 419.906 168.227 419.906 166.867H427.266C427.297 167.648 427.484 168.289 427.828 168.789C428.188 169.289 428.664 169.656 429.258 169.891C429.852 170.125 430.539 170.242 431.32 170.242C432.039 170.242 432.633 170.141 433.102 169.938C433.586 169.734 433.953 169.461 434.203 169.117C434.453 168.758 434.578 168.344 434.578 167.875ZM459.188 167.875C459.188 167.438 459.039 167.062 458.742 166.75C458.461 166.422 457.961 166.125 457.242 165.859C456.523 165.578 455.516 165.297 454.219 165.016C452.984 164.75 451.82 164.398 450.727 163.961C449.648 163.523 448.703 162.992 447.891 162.367C447.078 161.742 446.438 161 445.969 160.141C445.516 159.281 445.289 158.297 445.289 157.188C445.289 156.109 445.516 155.094 445.969 154.141C446.438 153.172 447.117 152.32 448.008 151.586C448.914 150.836 450.016 150.25 451.312 149.828C452.609 149.391 454.086 149.172 455.742 149.172C458.023 149.172 459.992 149.523 461.648 150.227C463.305 150.914 464.578 151.883 465.469 153.133C466.375 154.367 466.828 155.797 466.828 157.422H458.93C458.93 156.781 458.82 156.234 458.602 155.781C458.398 155.328 458.062 154.984 457.594 154.75C457.125 154.5 456.5 154.375 455.719 154.375C455.172 154.375 454.672 154.477 454.219 154.68C453.781 154.883 453.43 155.164 453.164 155.523C452.898 155.883 452.766 156.305 452.766 156.789C452.766 157.133 452.844 157.445 453 157.727C453.172 157.992 453.43 158.242 453.773 158.477C454.117 158.695 454.555 158.898 455.086 159.086C455.617 159.258 456.258 159.414 457.008 159.555C458.711 159.867 460.305 160.312 461.789 160.891C463.273 161.469 464.477 162.289 465.398 163.352C466.336 164.414 466.805 165.844 466.805 167.641C466.805 168.766 466.547 169.805 466.031 170.758C465.516 171.695 464.773 172.523 463.805 173.242C462.836 173.945 461.672 174.492 460.312 174.883C458.953 175.273 457.422 175.469 455.719 175.469C453.297 175.469 451.25 175.039 449.578 174.18C447.906 173.305 446.641 172.211 445.781 170.898C444.938 169.57 444.516 168.227 444.516 166.867H451.875C451.906 167.648 452.094 168.289 452.438 168.789C452.797 169.289 453.273 169.656 453.867 169.891C454.461 170.125 455.148 170.242 455.93 170.242C456.648 170.242 457.242 170.141 457.711 169.938C458.195 169.734 458.562 169.461 458.812 169.117C459.062 168.758 459.188 168.344 459.188 167.875ZM504.68 155.641V162.414H481.289V155.641H504.68ZM496.711 146.734V171.578H489.328V146.734H496.711ZM534 164.289V140.875H542.203V164.289C542.203 166.57 541.68 168.547 540.633 170.219C539.602 171.891 538.195 173.188 536.414 174.109C534.648 175.016 532.664 175.469 530.461 175.469C528.18 175.469 526.148 175.086 524.367 174.32C522.602 173.555 521.211 172.375 520.195 170.781C519.195 169.188 518.695 167.156 518.695 164.688H526.945C526.945 165.844 527.078 166.75 527.344 167.406C527.609 168.047 528 168.5 528.516 168.766C529.047 169.016 529.695 169.141 530.461 169.141C531.211 169.141 531.844 168.953 532.359 168.578C532.891 168.188 533.297 167.633 533.578 166.914C533.859 166.18 534 165.305 534 164.289ZM565.008 165.93C565.008 165.398 564.93 164.922 564.773 164.5C564.617 164.062 564.328 163.656 563.906 163.281C563.484 162.906 562.875 162.531 562.078 162.156C561.297 161.766 560.266 161.359 558.984 160.938C557.484 160.438 556.039 159.875 554.648 159.25C553.258 158.609 552.016 157.867 550.922 157.023C549.828 156.164 548.961 155.164 548.32 154.023C547.68 152.867 547.359 151.523 547.359 149.992C547.359 148.523 547.688 147.203 548.344 146.031C549 144.844 549.914 143.836 551.086 143.008C552.273 142.164 553.664 141.523 555.258 141.086C556.852 140.633 558.594 140.406 560.484 140.406C562.984 140.406 565.188 140.844 567.094 141.719C569.016 142.578 570.516 143.805 571.594 145.398C572.688 146.977 573.234 148.844 573.234 151H565.055C565.055 150.141 564.875 149.383 564.516 148.727C564.172 148.07 563.648 147.555 562.945 147.18C562.242 146.805 561.359 146.617 560.297 146.617C559.266 146.617 558.398 146.773 557.695 147.086C556.992 147.398 556.461 147.82 556.102 148.352C555.742 148.867 555.562 149.438 555.562 150.062C555.562 150.578 555.703 151.047 555.984 151.469C556.281 151.875 556.695 152.258 557.227 152.617C557.773 152.977 558.43 153.32 559.195 153.648C559.977 153.977 560.852 154.297 561.82 154.609C563.633 155.188 565.242 155.836 566.648 156.555C568.07 157.258 569.266 158.062 570.234 158.969C571.219 159.859 571.961 160.875 572.461 162.016C572.977 163.156 573.234 164.445 573.234 165.883C573.234 167.414 572.938 168.773 572.344 169.961C571.75 171.148 570.898 172.156 569.789 172.984C568.68 173.797 567.352 174.414 565.805 174.836C564.258 175.258 562.531 175.469 560.625 175.469C558.875 175.469 557.148 175.25 555.445 174.812C553.758 174.359 552.227 173.672 550.852 172.75C549.477 171.812 548.375 170.617 547.547 169.164C546.734 167.695 546.328 165.953 546.328 163.938H554.578C554.578 164.938 554.711 165.781 554.977 166.469C555.242 167.156 555.633 167.711 556.148 168.133C556.664 168.539 557.297 168.836 558.047 169.023C558.797 169.195 559.656 169.281 560.625 169.281C561.672 169.281 562.516 169.133 563.156 168.836C563.797 168.523 564.266 168.117 564.562 167.617C564.859 167.102 565.008 166.539 565.008 165.93ZM589.547 161.125V161.781C589.547 164.859 589.195 167.719 588.492 170.359C587.805 173 586.875 175.352 585.703 177.414C584.531 179.477 583.219 181.195 581.766 182.57C580.328 183.961 578.852 184.953 577.336 185.547L575.812 181.656C576.688 181.016 577.531 180.141 578.344 179.031C579.172 177.938 579.914 176.586 580.57 174.977C581.227 173.367 581.742 171.477 582.117 169.305C582.508 167.133 582.703 164.641 582.703 161.828V161.078C582.703 158.266 582.508 155.773 582.117 153.602C581.742 151.43 581.227 149.539 580.57 147.93C579.914 146.32 579.172 144.969 578.344 143.875C577.531 142.766 576.688 141.891 575.812 141.25L577.336 137.359C578.852 137.938 580.328 138.922 581.766 140.312C583.219 141.703 584.531 143.43 585.703 145.492C586.875 147.555 587.805 149.906 588.492 152.547C589.195 155.188 589.547 158.047 589.547 161.125ZM109.219 219.422H100.734V213.07H109.219C110.375 213.07 111.312 212.875 112.031 212.484C112.75 212.094 113.273 211.555 113.602 210.867C113.945 210.164 114.117 209.375 114.117 208.5C114.117 207.562 113.945 206.695 113.602 205.898C113.273 205.102 112.75 204.461 112.031 203.977C111.312 203.477 110.375 203.227 109.219 203.227H103.828V231H95.6016V196.875H109.219C111.953 196.875 114.305 197.375 116.273 198.375C118.258 199.375 119.781 200.75 120.844 202.5C121.906 204.234 122.438 206.219 122.438 208.453C122.438 210.656 121.906 212.578 120.844 214.219C119.781 215.859 118.258 217.141 116.273 218.062C114.305 218.969 111.953 219.422 109.219 219.422ZM149.859 210.422V216.75H132.352V210.422H149.859ZM135.094 196.875V231H126.867V196.875H135.094ZM155.391 196.875V231H147.188V196.875H155.391ZM174.234 219.422H165.75V213.07H174.234C175.391 213.07 176.328 212.875 177.047 212.484C177.766 212.094 178.289 211.555 178.617 210.867C178.961 210.164 179.133 209.375 179.133 208.5C179.133 207.562 178.961 206.695 178.617 205.898C178.289 205.102 177.766 204.461 177.047 203.977C176.328 203.477 175.391 203.227 174.234 203.227H168.844V231H160.617V196.875H174.234C176.969 196.875 179.32 197.375 181.289 198.375C183.273 199.375 184.797 200.75 185.859 202.5C186.922 204.234 187.453 206.219 187.453 208.453C187.453 210.656 186.922 212.578 185.859 214.219C184.797 215.859 183.273 217.141 181.289 218.062C179.32 218.969 176.969 219.422 174.234 219.422ZM213.141 231H205.195V203.578C205.195 201.609 205.594 199.953 206.391 198.609C207.188 197.266 208.312 196.25 209.766 195.562C211.219 194.859 212.938 194.508 214.922 194.508C215.609 194.508 216.258 194.555 216.867 194.648C217.477 194.742 218.07 194.859 218.648 195L218.672 200.812C218.391 200.734 218.102 200.68 217.805 200.648C217.508 200.617 217.141 200.602 216.703 200.602C215.938 200.602 215.289 200.719 214.758 200.953C214.227 201.172 213.82 201.508 213.539 201.961C213.273 202.398 213.141 202.938 213.141 203.578V231ZM218.062 205.641V211.125H201.539V205.641H218.062ZM219.914 218.578V218.086C219.914 216.227 220.18 214.516 220.711 212.953C221.242 211.375 222.023 210.008 223.055 208.852C224.086 207.695 225.359 206.797 226.875 206.156C228.391 205.5 230.141 205.172 232.125 205.172C234.125 205.172 235.883 205.5 237.398 206.156C238.93 206.797 240.211 207.695 241.242 208.852C242.273 210.008 243.055 211.375 243.586 212.953C244.117 214.516 244.383 216.227 244.383 218.086V218.578C244.383 220.422 244.117 222.133 243.586 223.711C243.055 225.273 242.273 226.641 241.242 227.812C240.211 228.969 238.938 229.867 237.422 230.508C235.906 231.148 234.156 231.469 232.172 231.469C230.188 231.469 228.43 231.148 226.898 230.508C225.367 229.867 224.086 228.969 223.055 227.812C222.023 226.641 221.242 225.273 220.711 223.711C220.18 222.133 219.914 220.422 219.914 218.578ZM227.812 218.086V218.578C227.812 219.531 227.883 220.422 228.023 221.25C228.164 222.078 228.398 222.805 228.727 223.43C229.055 224.039 229.5 224.516 230.062 224.859C230.625 225.203 231.328 225.375 232.172 225.375C233 225.375 233.688 225.203 234.234 224.859C234.797 224.516 235.242 224.039 235.57 223.43C235.898 222.805 236.133 222.078 236.273 221.25C236.414 220.422 236.484 219.531 236.484 218.578V218.086C236.484 217.164 236.414 216.297 236.273 215.484C236.133 214.656 235.898 213.93 235.57 213.305C235.242 212.664 234.797 212.164 234.234 211.805C233.672 211.445 232.969 211.266 232.125 211.266C231.297 211.266 230.602 211.445 230.039 211.805C229.492 212.164 229.055 212.664 228.727 213.305C228.398 213.93 228.164 214.656 228.023 215.484C227.883 216.297 227.812 217.164 227.812 218.086ZM255.867 211.922V231H247.969V205.641H255.352L255.867 211.922ZM263.367 205.453L263.227 212.789C262.914 212.758 262.492 212.719 261.961 212.672C261.43 212.625 260.984 212.602 260.625 212.602C259.703 212.602 258.906 212.711 258.234 212.93C257.578 213.133 257.031 213.445 256.594 213.867C256.172 214.273 255.859 214.789 255.656 215.414C255.469 216.039 255.383 216.766 255.398 217.594L253.969 216.656C253.969 214.953 254.133 213.406 254.461 212.016C254.805 210.609 255.289 209.398 255.914 208.383C256.539 207.352 257.297 206.562 258.188 206.016C259.078 205.453 260.078 205.172 261.188 205.172C261.578 205.172 261.961 205.195 262.336 205.242C262.727 205.289 263.07 205.359 263.367 205.453ZM292.617 225.188V195H300.562V231H293.438L292.617 225.188ZM277.055 218.625V218.133C277.055 216.211 277.266 214.461 277.688 212.883C278.109 211.289 278.734 209.922 279.562 208.781C280.391 207.625 281.422 206.734 282.656 206.109C283.891 205.484 285.312 205.172 286.922 205.172C288.359 205.172 289.617 205.508 290.695 206.18C291.773 206.836 292.695 207.758 293.461 208.945C294.227 210.133 294.852 211.523 295.336 213.117C295.82 214.695 296.188 216.398 296.438 218.227V218.812C296.188 220.531 295.82 222.156 295.336 223.688C294.852 225.203 294.227 226.547 293.461 227.719C292.695 228.891 291.766 229.812 290.672 230.484C289.594 231.141 288.328 231.469 286.875 231.469C285.266 231.469 283.844 231.148 282.609 230.508C281.391 229.867 280.367 228.969 279.539 227.812C278.727 226.656 278.109 225.297 277.688 223.734C277.266 222.172 277.055 220.469 277.055 218.625ZM284.953 218.133V218.625C284.953 219.578 285.016 220.461 285.141 221.273C285.266 222.086 285.477 222.805 285.773 223.43C286.086 224.039 286.492 224.516 286.992 224.859C287.508 225.203 288.141 225.375 288.891 225.375C289.906 225.375 290.742 225.133 291.398 224.648C292.07 224.164 292.562 223.477 292.875 222.586C293.203 221.695 293.344 220.648 293.297 219.445V217.594C293.328 216.562 293.258 215.656 293.086 214.875C292.914 214.078 292.641 213.414 292.266 212.883C291.906 212.352 291.445 211.953 290.883 211.688C290.336 211.406 289.688 211.266 288.938 211.266C288.203 211.266 287.578 211.438 287.062 211.781C286.562 212.125 286.156 212.609 285.844 213.234C285.531 213.844 285.305 214.57 285.164 215.414C285.023 216.242 284.953 217.148 284.953 218.133ZM318.211 224.625V214.172C318.211 213.453 318.109 212.836 317.906 212.32C317.703 211.805 317.383 211.406 316.945 211.125C316.508 210.828 315.922 210.68 315.188 210.68C314.594 210.68 314.086 210.781 313.664 210.984C313.242 211.188 312.922 211.492 312.703 211.898C312.484 212.305 312.375 212.82 312.375 213.445H304.477C304.477 212.273 304.734 211.188 305.25 210.188C305.781 209.172 306.531 208.289 307.5 207.539C308.484 206.789 309.656 206.211 311.016 205.805C312.391 205.383 313.922 205.172 315.609 205.172C317.625 205.172 319.422 205.508 321 206.18C322.594 206.852 323.852 207.859 324.773 209.203C325.695 210.531 326.156 212.203 326.156 214.219V224.602C326.156 226.258 326.25 227.516 326.438 228.375C326.625 229.219 326.891 229.961 327.234 230.602V231H319.312C318.938 230.219 318.656 229.266 318.469 228.141C318.297 227 318.211 225.828 318.211 224.625ZM319.172 215.508L319.219 219.727H315.727C314.992 219.727 314.367 219.828 313.852 220.031C313.352 220.234 312.945 220.516 312.633 220.875C312.336 221.219 312.117 221.609 311.977 222.047C311.852 222.484 311.789 222.945 311.789 223.43C311.789 223.898 311.898 224.32 312.117 224.695C312.352 225.055 312.664 225.336 313.055 225.539C313.445 225.742 313.883 225.844 314.367 225.844C315.242 225.844 315.984 225.68 316.594 225.352C317.219 225.008 317.695 224.594 318.023 224.109C318.352 223.625 318.516 223.172 318.516 222.75L320.25 225.984C319.938 226.609 319.578 227.242 319.172 227.883C318.781 228.523 318.289 229.117 317.695 229.664C317.117 230.195 316.406 230.633 315.562 230.977C314.719 231.305 313.695 231.469 312.492 231.469C310.93 231.469 309.492 231.148 308.18 230.508C306.883 229.867 305.844 228.977 305.062 227.836C304.281 226.68 303.891 225.352 303.891 223.852C303.891 222.539 304.125 221.367 304.594 220.336C305.078 219.305 305.805 218.43 306.773 217.711C307.742 216.992 308.977 216.445 310.477 216.07C311.977 215.695 313.742 215.508 315.773 215.508H319.172ZM343.898 205.641V211.125H328.617V205.641H343.898ZM331.828 199.336H339.727V222.727C339.727 223.398 339.805 223.922 339.961 224.297C340.117 224.656 340.383 224.914 340.758 225.07C341.148 225.211 341.664 225.281 342.305 225.281C342.758 225.281 343.133 225.273 343.43 225.258C343.727 225.227 344.008 225.188 344.273 225.141V230.789C343.602 231.008 342.898 231.172 342.164 231.281C341.43 231.406 340.648 231.469 339.82 231.469C338.133 231.469 336.688 231.203 335.484 230.672C334.297 230.141 333.391 229.305 332.766 228.164C332.141 227.023 331.828 225.539 331.828 223.711V199.336ZM360.211 224.625V214.172C360.211 213.453 360.109 212.836 359.906 212.32C359.703 211.805 359.383 211.406 358.945 211.125C358.508 210.828 357.922 210.68 357.188 210.68C356.594 210.68 356.086 210.781 355.664 210.984C355.242 211.188 354.922 211.492 354.703 211.898C354.484 212.305 354.375 212.82 354.375 213.445H346.477C346.477 212.273 346.734 211.188 347.25 210.188C347.781 209.172 348.531 208.289 349.5 207.539C350.484 206.789 351.656 206.211 353.016 205.805C354.391 205.383 355.922 205.172 357.609 205.172C359.625 205.172 361.422 205.508 363 206.18C364.594 206.852 365.852 207.859 366.773 209.203C367.695 210.531 368.156 212.203 368.156 214.219V224.602C368.156 226.258 368.25 227.516 368.438 228.375C368.625 229.219 368.891 229.961 369.234 230.602V231H361.312C360.938 230.219 360.656 229.266 360.469 228.141C360.297 227 360.211 225.828 360.211 224.625ZM361.172 215.508L361.219 219.727H357.727C356.992 219.727 356.367 219.828 355.852 220.031C355.352 220.234 354.945 220.516 354.633 220.875C354.336 221.219 354.117 221.609 353.977 222.047C353.852 222.484 353.789 222.945 353.789 223.43C353.789 223.898 353.898 224.32 354.117 224.695C354.352 225.055 354.664 225.336 355.055 225.539C355.445 225.742 355.883 225.844 356.367 225.844C357.242 225.844 357.984 225.68 358.594 225.352C359.219 225.008 359.695 224.594 360.023 224.109C360.352 223.625 360.516 223.172 360.516 222.75L362.25 225.984C361.938 226.609 361.578 227.242 361.172 227.883C360.781 228.523 360.289 229.117 359.695 229.664C359.117 230.195 358.406 230.633 357.562 230.977C356.719 231.305 355.695 231.469 354.492 231.469C352.93 231.469 351.492 231.148 350.18 230.508C348.883 229.867 347.844 228.977 347.062 227.836C346.281 226.68 345.891 225.352 345.891 223.852C345.891 222.539 346.125 221.367 346.594 220.336C347.078 219.305 347.805 218.43 348.773 217.711C349.742 216.992 350.977 216.445 352.477 216.07C353.977 215.695 355.742 215.508 357.773 215.508H361.172ZM372.609 195H380.508V224.766L379.688 231H372.609V195ZM396.07 218.039V218.531C396.07 220.453 395.875 222.203 395.484 223.781C395.094 225.359 394.492 226.727 393.68 227.883C392.867 229.023 391.844 229.906 390.609 230.531C389.375 231.156 387.914 231.469 386.227 231.469C384.695 231.469 383.383 231.141 382.289 230.484C381.195 229.812 380.281 228.891 379.547 227.719C378.812 226.531 378.219 225.164 377.766 223.617C377.312 222.055 376.953 220.383 376.688 218.602V218.016C376.953 216.25 377.312 214.594 377.766 213.047C378.219 211.484 378.812 210.117 379.547 208.945C380.281 207.758 381.188 206.836 382.266 206.18C383.359 205.508 384.664 205.172 386.18 205.172C387.883 205.172 389.352 205.492 390.586 206.133C391.836 206.773 392.867 207.672 393.68 208.828C394.492 209.984 395.094 211.344 395.484 212.906C395.875 214.469 396.07 216.18 396.07 218.039ZM388.172 218.531V218.039C388.172 217.117 388.117 216.25 388.008 215.438C387.898 214.625 387.703 213.906 387.422 213.281C387.141 212.656 386.742 212.164 386.227 211.805C385.711 211.445 385.039 211.266 384.211 211.266C383.367 211.266 382.656 211.406 382.078 211.688C381.516 211.969 381.062 212.375 380.719 212.906C380.391 213.422 380.156 214.062 380.016 214.828C379.875 215.578 379.812 216.43 379.828 217.383V219.234C379.797 220.531 379.914 221.641 380.18 222.562C380.445 223.484 380.906 224.188 381.562 224.672C382.219 225.156 383.117 225.398 384.258 225.398C385.102 225.398 385.781 225.234 386.297 224.906C386.828 224.578 387.227 224.109 387.492 223.5C387.758 222.891 387.938 222.164 388.031 221.32C388.125 220.477 388.172 219.547 388.172 218.531ZM412.758 224.625V214.172C412.758 213.453 412.656 212.836 412.453 212.32C412.25 211.805 411.93 211.406 411.492 211.125C411.055 210.828 410.469 210.68 409.734 210.68C409.141 210.68 408.633 210.781 408.211 210.984C407.789 211.188 407.469 211.492 407.25 211.898C407.031 212.305 406.922 212.82 406.922 213.445H399.023C399.023 212.273 399.281 211.188 399.797 210.188C400.328 209.172 401.078 208.289 402.047 207.539C403.031 206.789 404.203 206.211 405.562 205.805C406.938 205.383 408.469 205.172 410.156 205.172C412.172 205.172 413.969 205.508 415.547 206.18C417.141 206.852 418.398 207.859 419.32 209.203C420.242 210.531 420.703 212.203 420.703 214.219V224.602C420.703 226.258 420.797 227.516 420.984 228.375C421.172 229.219 421.438 229.961 421.781 230.602V231H413.859C413.484 230.219 413.203 229.266 413.016 228.141C412.844 227 412.758 225.828 412.758 224.625ZM413.719 215.508L413.766 219.727H410.273C409.539 219.727 408.914 219.828 408.398 220.031C407.898 220.234 407.492 220.516 407.18 220.875C406.883 221.219 406.664 221.609 406.523 222.047C406.398 222.484 406.336 222.945 406.336 223.43C406.336 223.898 406.445 224.32 406.664 224.695C406.898 225.055 407.211 225.336 407.602 225.539C407.992 225.742 408.43 225.844 408.914 225.844C409.789 225.844 410.531 225.68 411.141 225.352C411.766 225.008 412.242 224.594 412.57 224.109C412.898 223.625 413.062 223.172 413.062 222.75L414.797 225.984C414.484 226.609 414.125 227.242 413.719 227.883C413.328 228.523 412.836 229.117 412.242 229.664C411.664 230.195 410.953 230.633 410.109 230.977C409.266 231.305 408.242 231.469 407.039 231.469C405.477 231.469 404.039 231.148 402.727 230.508C401.43 229.867 400.391 228.977 399.609 227.836C398.828 226.68 398.438 225.352 398.438 223.852C398.438 222.539 398.672 221.367 399.141 220.336C399.625 219.305 400.352 218.43 401.32 217.711C402.289 216.992 403.523 216.445 405.023 216.07C406.523 215.695 408.289 215.508 410.32 215.508H413.719ZM438.375 223.875C438.375 223.438 438.227 223.062 437.93 222.75C437.648 222.422 437.148 222.125 436.43 221.859C435.711 221.578 434.703 221.297 433.406 221.016C432.172 220.75 431.008 220.398 429.914 219.961C428.836 219.523 427.891 218.992 427.078 218.367C426.266 217.742 425.625 217 425.156 216.141C424.703 215.281 424.477 214.297 424.477 213.188C424.477 212.109 424.703 211.094 425.156 210.141C425.625 209.172 426.305 208.32 427.195 207.586C428.102 206.836 429.203 206.25 430.5 205.828C431.797 205.391 433.273 205.172 434.93 205.172C437.211 205.172 439.18 205.523 440.836 206.227C442.492 206.914 443.766 207.883 444.656 209.133C445.562 210.367 446.016 211.797 446.016 213.422H438.117C438.117 212.781 438.008 212.234 437.789 211.781C437.586 211.328 437.25 210.984 436.781 210.75C436.312 210.5 435.688 210.375 434.906 210.375C434.359 210.375 433.859 210.477 433.406 210.68C432.969 210.883 432.617 211.164 432.352 211.523C432.086 211.883 431.953 212.305 431.953 212.789C431.953 213.133 432.031 213.445 432.188 213.727C432.359 213.992 432.617 214.242 432.961 214.477C433.305 214.695 433.742 214.898 434.273 215.086C434.805 215.258 435.445 215.414 436.195 215.555C437.898 215.867 439.492 216.312 440.977 216.891C442.461 217.469 443.664 218.289 444.586 219.352C445.523 220.414 445.992 221.844 445.992 223.641C445.992 224.766 445.734 225.805 445.219 226.758C444.703 227.695 443.961 228.523 442.992 229.242C442.023 229.945 440.859 230.492 439.5 230.883C438.141 231.273 436.609 231.469 434.906 231.469C432.484 231.469 430.438 231.039 428.766 230.18C427.094 229.305 425.828 228.211 424.969 226.898C424.125 225.57 423.703 224.227 423.703 222.867H431.062C431.094 223.648 431.281 224.289 431.625 224.789C431.984 225.289 432.461 225.656 433.055 225.891C433.648 226.125 434.336 226.242 435.117 226.242C435.836 226.242 436.43 226.141 436.898 225.938C437.383 225.734 437.75 225.461 438 225.117C438.25 224.758 438.375 224.344 438.375 223.875ZM461.977 231.469C459.914 231.469 458.07 231.148 456.445 230.508C454.82 229.852 453.445 228.953 452.32 227.812C451.211 226.672 450.359 225.359 449.766 223.875C449.188 222.391 448.898 220.82 448.898 219.164V218.273C448.898 216.414 449.156 214.695 449.672 213.117C450.188 211.523 450.953 210.133 451.969 208.945C452.984 207.758 454.258 206.836 455.789 206.18C457.32 205.508 459.102 205.172 461.133 205.172C462.93 205.172 464.539 205.461 465.961 206.039C467.383 206.617 468.586 207.445 469.57 208.523C470.57 209.602 471.328 210.906 471.844 212.438C472.375 213.969 472.641 215.688 472.641 217.594V220.805H451.922V215.859H464.93V215.25C464.945 214.406 464.797 213.688 464.484 213.094C464.188 212.5 463.75 212.047 463.172 211.734C462.594 211.422 461.891 211.266 461.062 211.266C460.203 211.266 459.492 211.453 458.93 211.828C458.383 212.203 457.953 212.719 457.641 213.375C457.344 214.016 457.133 214.758 457.008 215.602C456.883 216.445 456.82 217.336 456.82 218.273V219.164C456.82 220.102 456.945 220.953 457.195 221.719C457.461 222.484 457.836 223.141 458.32 223.688C458.82 224.219 459.414 224.633 460.102 224.93C460.805 225.227 461.602 225.375 462.492 225.375C463.57 225.375 464.633 225.172 465.68 224.766C466.727 224.359 467.625 223.688 468.375 222.75L471.961 227.016C471.445 227.75 470.711 228.461 469.758 229.148C468.82 229.836 467.695 230.398 466.383 230.836C465.07 231.258 463.602 231.469 461.977 231.469Z" fill="black"/>
<path d="M1134 0H1348C1356.28 0 1363 6.71573 1363 15V260C1363 268.284 1356.28 275 1348 275H1134V0Z" fill="#FDDF97"/>
<path fill-rule="evenodd" clip-rule="evenodd" d="M1218.75 109C1218.62 109 1218.49 109.053 1218.4 109.146C1218.3 109.24 1218.25 109.367 1218.25 109.5V165.5C1218.25 165.633 1218.3 165.76 1218.4 165.854C1218.49 165.947 1218.62 166 1218.75 166H1278.25C1278.38 166 1278.51 165.947 1278.6 165.854C1278.7 165.76 1278.75 165.633 1278.75 165.5V120C1278.75 119.867 1278.7 119.74 1278.6 119.646C1278.51 119.553 1278.38 119.5 1278.25 119.5H1248.5C1247.61 119.5 1246.77 119.105 1246.2 118.421L1238.34 109H1218.75ZM1214.15 104.904C1215.37 103.685 1217.03 103 1218.75 103H1239.75C1240.64 103 1241.48 103.395 1242.05 104.079L1249.91 113.5H1278.25C1279.97 113.5 1281.63 114.185 1282.85 115.404C1284.07 116.623 1284.75 118.276 1284.75 120V165.5C1284.75 167.224 1284.07 168.877 1282.85 170.096C1281.63 171.315 1279.97 172 1278.25 172H1218.75C1217.03 172 1215.37 171.315 1214.15 170.096C1212.93 168.877 1212.25 167.224 1212.25 165.5V109.5C1212.25 107.776 1212.93 106.123 1214.15 104.904Z" fill="white"/>
<path fill-rule="evenodd" clip-rule="evenodd" d="M1243.97 131.525C1245.34 132.892 1245.34 135.108 1243.97 136.475L1237.7 142.75L1243.97 149.025C1245.34 150.392 1245.34 152.608 1243.97 153.975C1242.61 155.342 1240.39 155.342 1239.03 153.975L1230.28 145.225C1228.91 143.858 1228.91 141.642 1230.28 140.275L1239.03 131.525C1240.39 130.158 1242.61 130.158 1243.97 131.525Z" fill="white"/>
<path fill-rule="evenodd" clip-rule="evenodd" d="M1252.28 153.975C1250.91 152.608 1250.91 150.392 1252.28 149.025L1258.55 142.75L1252.28 136.475C1250.91 135.108 1250.91 132.892 1252.28 131.525C1253.64 130.158 1255.86 130.158 1257.22 131.525L1265.97 140.275C1267.34 141.642 1267.34 143.858 1265.97 145.225L1257.22 153.975C1255.86 155.342 1253.64 155.342 1252.28 153.975Z" fill="white"/>
</svg>
